<?xml version="1.0" encoding="utf-8"?>
<!-- Generator: Adobe Illustrator 18.1.1, SVG Export Plug-In . SVG Version: 6.00 Build 0)  -->
<!DOCTYPE svg PUBLIC "-//W3C//DTD SVG 1.1//EN" "http://www.w3.org/Graphics/SVG/1.1/DTD/svg11.dtd">
<svg version="1.1" id="Layer_1" xmlns="http://www.w3.org/2000/svg" xmlns:xlink="http://www.w3.org/1999/xlink" x="0px" y="0px"
	 viewBox="130 -184 512 512" enable-background="new 130 -184 512 512" xml:space="preserve">
<path d="M572.5,177.8c-1.3-0.8-2.8-1.2-4.3-1.2c-2.7,0-5.4,1.4-6.9,3.8c-4.1,6.6-8.7,13.1-13.5,19.1c-2.8,3.5-2.2,8.6,1.3,11.4
	c3.5,2.8,8.6,2.2,11.4-1.3c5.2-6.6,10.1-13.5,14.6-20.7C577.4,185.2,576.3,180.2,572.5,177.8z"/>
<path d="M529.6,222.4c-1.9,0-3.9,0.7-5.4,2.1c-5.8,5.2-11.9,10.1-18.3,14.6c-3.7,2.6-4.5,7.7-1.9,11.3c2.6,3.7,7.6,4.5,11.3,1.9
	c6.9-4.9,13.5-10.2,19.8-15.7c3.3-3,3.6-8.1,0.6-11.5C534,223.3,531.8,222.4,529.6,222.4z"/>
<path d="M600,64.9c-4.5,0-8.1,2.5-8,7l0,1.2c0,7-0.4,14.1-1.1,21c-0.5,4.5,2.8,8.5,7.2,9c4.5,0.3,8.4-2.6,8.9-7.1
	c0.8-7.4,1.1-14.7,1.1-22.3l0-2C608.1,67.2,604.5,64.9,600,64.9C600,64.9,600,64.9,600,64.9z"/>
<path d="M594.5,122.1c-0.7-0.2-1.5-0.3-2.2-0.3c-3.6,0-6.8,2.3-7.8,5.9c-2.1,7.5-4.6,15-7.6,22.2c-1.7,4.1,0.3,8.9,4.4,10.6
	c4.1,1.7,8.9-0.3,10.6-4.5c3.2-7.8,5.9-15.8,8.2-23.9C601.3,127.8,598.8,123.3,594.5,122.1z"/>
<path d="M583.1,13.7c2.3,7.4,4.1,15.1,5.5,22.7c0.8,4.4,5,7.4,9.4,6.5c4.4-0.8,7.3-5,6.5-9.4c-1.5-8.3-3.5-16.6-6-24.6
	c-1.1-3.5-4.3-5.8-7.8-5.8c-0.8,0-1.6,0.1-2.4,0.4C584.2,4.8,581.8,9.4,583.1,13.7z"/>
<path d="M479.8,255.6c-1.2,0-2.4,0.3-3.5,0.8c-7,3.4-14.3,6.3-21.7,8.8c-4.2,1.4-6.5,6.1-5.1,10.3c1.5,4.2,6.1,6.5,10.3,5.1
	c7.9-2.7,15.8-5.9,23.4-9.6c4.1-1.9,5.8-6.8,3.8-10.8C485.7,257.3,482.8,255.6,479.8,255.6z"/>
<path d="M208.6,166.4c-1.4-2.8-4.3-4.4-7.2-4.4c-1.3,0-2.5,0.3-3.7,0.9c-4,2.1-5.5,7-3.5,10.9c3.9,7.4,8.2,14.8,12.9,21.7
	c2.5,3.7,7.5,4.7,11.3,2.2c3.7-2.5,4.7-7.6,2.2-11.3C216.2,180.1,212.1,173.3,208.6,166.4z"/>
<path d="M195.4,134.7c-2.4-7.4-4.3-15-5.8-22.7c-0.8-3.9-4.2-6.6-8-6.6c-0.5,0-1,0-1.6,0.2c-4.4,0.9-7.3,5.1-6.4,9.5
	c1.6,8.3,3.7,16.5,6.2,24.5c1.4,4.3,6,6.6,10.2,5.3C194.4,143.5,196.8,139,195.4,134.7z"/>
<path d="M422.6,273.5c-0.4,0-0.9,0-1.3,0.1c-7.7,1.2-15.5,2-23.3,2.4c-4.5,0.2-8,4-7.8,8.5c0.2,4.5,4.4,7.9,8.5,7.8
	c8.4-0.4,16.9-1.2,25.1-2.6c4.4-0.7,7.4-4.9,6.7-9.3C430,276.3,426.5,273.5,422.6,273.5z"/>
<path d="M363.7,274.6c-7.8-1-15.5-2.4-23-4.2c-0.7-0.2-1.3-0.2-1.9-0.2c-3.7,0-7,2.5-7.9,6.2c-1.1,4.4,1.6,8.8,6,9.8
	c8.1,2,16.5,3.5,24.9,4.6c4.5,0.6,8.5-2.6,9.1-7.1C371.3,279.2,368.2,275.1,363.7,274.6z"/>
<path d="M308.2,259.4c-7.1-3.1-14.2-6.6-20.9-10.6c-1.3-0.7-2.7-1.1-4.1-1.1c-2.8,0-5.5,1.5-7,4c-2.3,3.9-0.9,8.9,2.9,11.1
	c7.3,4.2,14.9,8,22.6,11.4c4.1,1.8,8.9-0.1,10.7-4.2C314.2,266,312.3,261.2,308.2,259.4z"/>
<path d="M230.3,224.5c5.8,6.1,12,11.9,18.5,17.3c3.4,2.9,8.6,2.4,11.4-1c2.9-3.5,2.4-8.6-1-11.4c-6-5-11.7-10.4-17.1-16
	c-1.6-1.7-3.7-2.5-5.9-2.5c-2,0-4,0.7-5.6,2.2C227.3,216.1,227.2,221.2,230.3,224.5z"/>
<path d="M206.6-34c3.8,2.4,8.8,1.3,11.2-2.5c4.2-6.6,8.8-13,13.8-19c2.8-3.5,2.3-8.6-1.1-11.4c-1.5-1.2-3.3-1.8-5.1-1.8
	c-2.4,0-4.7,1-6.3,3c-5.3,6.5-10.3,13.4-14.8,20.5C201.8-41.4,202.9-36.4,206.6-34z"/>
<path d="M255.5-80c5.9-5.1,12.1-10,18.5-14.4c3.7-2.5,4.6-7.6,2.1-11.3c-1.6-2.3-4.1-3.5-6.7-3.5c-1.6,0-3.2,0.5-4.6,1.4
	c-6.9,4.7-13.6,10-20,15.5c-3.4,3-3.7,8.1-0.8,11.5C247-77.4,252.1-77.1,255.5-80z"/>
<path d="M169.7,78.3c0.1,4.5,4,8.2,8.3,7.9c4.5-0.1,8-3.8,7.9-8.3c0-1.6-0.1-3.2-0.1-4.9c0-7.8,0.5-15.7,1.3-23.4
	c0.5-4.5-2.7-8.5-7.1-9c-0.3,0-0.6-0.1-0.9-0.1c-4.1,0-7.6,3.1-8.1,7.2c-1,8.3-1.4,16.8-1.4,25.2C169.7,74.8,169.7,76.5,169.7,78.3z
	"/>
<path d="M183.9,21.5c4.3,1.3,8.8-1.2,10.1-5.5c2.2-7.4,4.8-14.9,7.9-22.1c1.7-4.1-0.2-8.9-4.3-10.6c-1-0.4-2.1-0.6-3.2-0.6
	c-3.2,0-6.2,1.9-7.5,5c-3.3,7.8-6.1,15.8-8.5,23.8C177.2,15.8,179.6,20.3,183.9,21.5z"/>
<path d="M303.8-111.4c7.1-3.3,14.4-6.1,21.8-8.6c4.3-1.4,6.6-6,5.2-10.3c-1.1-3.4-4.3-5.6-7.7-5.6c-0.8,0-1.7,0.1-2.5,0.4
	c-8,2.6-15.9,5.7-23.5,9.3c-4.1,1.9-5.8,6.7-4,10.8C294.9-111.3,299.7-109.5,303.8-111.4z"/>
<path d="M471.9-112.4c7.1,3.2,14.1,6.8,20.8,10.8c3.8,2.3,8.8,1,11.1-2.8c2.3-3.9,1-8.8-2.8-11.1c-7.2-4.3-14.8-8.2-22.4-11.7
	c-1.1-0.5-2.2-0.7-3.3-0.7c-3.1,0-6.1,1.8-7.4,4.8C465.9-119.1,467.8-114.3,471.9-112.4z"/>
<path d="M537.5-65.4c3.1,3.3,8.2,3.5,11.5,0.4c3.3-3.1,3.5-8.2,0.4-11.5c-5.7-6.1-11.9-12-18.3-17.5c-1.5-1.3-3.4-1.9-5.3-1.9
	c-2.3,0-4.6,1-6.2,2.9c-2.9,3.4-2.5,8.5,0.9,11.4C526.5-76.6,532.1-71.1,537.5-65.4z"/>
<path d="M570.4-18.2c2,4,6.9,5.6,10.9,3.6c4-2,5.6-6.9,3.6-10.9c-3.8-7.5-8-14.9-12.6-21.9c-1.6-2.4-4.2-3.7-6.8-3.7
	c-1.5,0-3.1,0.4-4.5,1.3c-3.7,2.5-4.8,7.5-2.3,11.3C562.9-31.9,566.9-25.1,570.4-18.2z"/>
<path d="M416.5-128.2c7.7,1,15.5,2.6,23,4.5c4.3,1.1,8.8-1.5,9.9-5.8c1.1-4.3-1.5-8.8-5.8-9.9c-8.1-2.1-16.5-3.7-24.8-4.9
	c-0.4,0-0.7-0.1-1.1-0.1c-4,0-7.5,3-8,7C409-132.9,412.1-128.8,416.5-128.2z"/>
<path d="M358.9-127.9c7.7-1.1,15.5-1.9,23.3-2.1c4.5-0.1,8-3.9,7.8-8.4c-0.1-4.4-3.7-7.9-8.1-7.9c-0.1,0-0.2,0-0.3,0
	c-8.4,0-16.9,1.1-25.2,2.3c-4.4,0.7-7.5,4.8-6.8,9.3C350.3-130.3,354.4-127.3,358.9-127.9z"/>
<path d="M370.3-26.8c3.2-3.2,3.2-8.3,0-11.5c-1.6-1.6-3.7-2.4-5.7-2.4c-2.1,0-4.2,0.8-5.7,2.4L253.2,67.3c-3.2,3.2-3.2,8.3,0,11.5
	l105.6,105.6c3.2,3.2,8.3,3.2,11.5,0c3.2-3.2,3.2-8.3,0-11.5l-91.7-91.8h232.1c4.5,0,8.1-3.6,8.1-8.1s-3.6-8.1-8.1-8.1H278.6
	L370.3-26.8z"/>
</svg>
