<?xml version="1.0" encoding="utf-8"?>
<!-- Generator: Adobe Illustrator 18.1.1, SVG Export Plug-In . SVG Version: 6.00 Build 0)  -->
<svg version="1.1" id="Layer_1" xmlns="http://www.w3.org/2000/svg" xmlns:xlink="http://www.w3.org/1999/xlink" x="0px" y="0px"
	 viewBox="0 0 612 792" enable-background="new 0 0 612 792" xml:space="preserve">
<path d="M525.5,521.3c-1.6-1-3.3-1.4-5.1-1.4c-3.2,0-6.5,1.7-8.2,4.5c-4.9,7.9-10.4,15.7-16.1,22.8c-3.3,4.2-2.6,10.3,1.6,13.6
	s10.3,2.6,13.6-1.6c6.2-7.9,12.1-16.1,17.5-24.7C531.4,530.1,530.1,524.1,525.5,521.3z M474.2,574.6c-2.3,0-4.7,0.8-6.5,2.5
	c-6.9,6.2-14.2,12.1-21.9,17.5c-4.4,3.1-5.4,9.2-2.3,13.5c3.1,4.4,9.1,5.4,13.5,2.3c8.2-5.9,16.1-12.2,23.7-18.8
	c3.9-3.6,4.3-9.7,0.7-13.7C479.5,575.7,476.9,574.6,474.2,574.6z M558.4,386.3c-5.4,0-9.7,3-9.6,8.4v1.4c0,8.4-0.5,16.9-1.3,25.1
	c-0.6,5.4,3.3,10.2,8.6,10.8c5.4,0.4,10-3.1,10.6-8.5c1-8.8,1.3-17.6,1.3-26.7v-2.4C568.1,389.1,563.8,386.3,558.4,386.3
	L558.4,386.3z M551.8,454.7c-0.8-0.2-1.8-0.4-2.6-0.4c-4.3,0-8.1,2.7-9.3,7.1c-2.5,9-5.5,17.9-9.1,26.5c-2,4.9,0.4,10.6,5.3,12.7
	c4.9,2,10.6-0.4,12.7-5.4c3.8-9.3,7.1-18.9,9.8-28.6C559.9,461.5,557,456.1,551.8,454.7z M538.2,325.1c2.7,8.8,4.9,18,6.6,27.1
	c1,5.3,6,8.8,11.2,7.8c5.3-1,8.7-6,7.8-11.2c-1.8-9.9-4.2-19.8-7.2-29.4c-1.3-4.2-5.1-6.9-9.3-6.9c-1,0-1.9,0.1-2.9,0.5
	C539.5,314.5,536.6,320,538.2,325.1z M414.7,614.3c-1.4,0-2.9,0.4-4.2,1c-8.4,4.1-17.1,7.5-25.9,10.5c-5,1.7-7.8,7.3-6.1,12.3
	c1.8,5,7.3,7.8,12.3,6.1c9.4-3.2,18.9-7.1,28-11.5c4.9-2.3,6.9-8.1,4.5-12.9C421.8,616.3,418.3,614.3,414.7,614.3z M90.5,507.6
	c-1.7-3.3-5.1-5.3-8.6-5.3c-1.6,0-3,0.4-4.4,1.1c-4.8,2.5-6.6,8.4-4.2,13c4.7,8.8,9.8,17.7,15.4,25.9c3,4.4,9,5.6,13.5,2.6
	c4.4-3,5.6-9.1,2.6-13.5C99.6,524,94.7,515.9,90.5,507.6z M74.8,469.7c-2.9-8.8-5.1-17.9-6.9-27.1c-1-4.7-5-7.9-9.6-7.9
	c-0.6,0-1.2,0-1.9,0.2c-5.3,1.1-8.7,6.1-7.6,11.4c1.9,9.9,4.4,19.7,7.4,29.3c1.7,5.1,7.2,7.9,12.2,6.3
	C73.6,480.3,76.4,474.9,74.8,469.7z M346.3,635.7c-0.5,0-1.1,0-1.6,0.1c-9.2,1.4-18.5,2.4-27.9,2.9c-5.4,0.2-9.6,4.8-9.3,10.2
	s5.3,9.4,10.2,9.3c10-0.5,20.2-1.4,30-3.1c5.3-0.8,8.8-5.9,8-11.1C355.2,639,351,635.7,346.3,635.7z M275.9,637
	c-9.3-1.2-18.5-2.9-27.5-5c-0.8-0.2-1.6-0.2-2.3-0.2c-4.4,0-8.4,3-9.4,7.4c-1.3,5.3,1.9,10.5,7.2,11.7c9.7,2.4,19.7,4.2,29.8,5.5
	c5.4,0.7,10.2-3.1,10.9-8.5C285,642.5,281.3,637.6,275.9,637z M209.6,618.8c-8.5-3.7-17-7.9-25-12.7c-1.6-0.8-3.2-1.3-4.9-1.3
	c-3.3,0-6.6,1.8-8.4,4.8c-2.7,4.7-1.1,10.6,3.5,13.3c8.7,5,17.8,9.6,27,13.6c4.9,2.2,10.6-0.1,12.8-5
	C216.8,626.7,214.5,621,209.6,618.8z M116.5,577.1c6.9,7.3,14.3,14.2,22.1,20.7c4.1,3.5,10.3,2.9,13.6-1.2
	c3.5-4.2,2.9-10.3-1.2-13.6c-7.2-6-14-12.4-20.4-19.1c-1.9-2-4.4-3-7.1-3c-2.4,0-4.8,0.8-6.7,2.6C112.9,567,112.8,573.1,116.5,577.1
	z M88.2,268.1c4.5,2.9,10.5,1.6,13.4-3c5-7.9,10.5-15.5,16.5-22.7c3.3-4.2,2.7-10.3-1.3-13.6c-1.8-1.4-3.9-2.2-6.1-2.2
	c-2.9,0-5.6,1.2-7.5,3.6c-6.3,7.8-12.3,16-17.7,24.5C82.4,259.3,83.7,265.2,88.2,268.1z M146.6,213.1c7.1-6.1,14.5-12,22.1-17.2
	c4.4-3,5.5-9.1,2.5-13.5c-1.9-2.7-4.9-4.2-8-4.2c-1.9,0-3.8,0.6-5.5,1.7c-8.2,5.6-16.3,12-23.9,18.5c-4.1,3.6-4.4,9.7-1,13.7
	C136.4,216.2,142.5,216.6,146.6,213.1z M44,402.3c0.1,5.4,4.8,9.8,9.9,9.4c5.4-0.1,9.6-4.5,9.4-9.9c0-1.9-0.1-3.8-0.1-5.9
	c0-9.3,0.6-18.8,1.6-28c0.6-5.4-3.2-10.2-8.5-10.8c-0.4,0-0.7-0.1-1.1-0.1c-4.9,0-9.1,3.7-9.7,8.6c-1.2,9.9-1.7,20.1-1.7,30.1
	C44,398.2,44,400.2,44,402.3z M61,334.4c5.1,1.6,10.5-1.4,12.1-6.6c2.6-8.8,5.7-17.8,9.4-26.4c2-4.9-0.2-10.6-5.1-12.7
	c-1.2-0.5-2.5-0.7-3.8-0.7c-3.8,0-7.4,2.3-9,6c-3.9,9.3-7.3,18.9-10.2,28.4C53,327.6,55.9,333,61,334.4z M204.3,175.6
	c8.5-3.9,17.2-7.3,26.1-10.3c5.1-1.7,7.9-7.2,6.2-12.3c-1.3-4.1-5.1-6.7-9.2-6.7c-1,0-2,0.1-3,0.5c-9.6,3.1-19,6.8-28.1,11.1
	c-4.9,2.3-6.9,8-4.8,12.9C193.7,175.7,199.4,177.9,204.3,175.6z M405.3,174.4c8.5,3.8,16.9,8.1,24.9,12.9c4.5,2.7,10.5,1.2,13.3-3.3
	c2.7-4.7,1.2-10.5-3.3-13.3c-8.6-5.1-17.7-9.8-26.8-14c-1.3-0.6-2.6-0.8-3.9-0.8c-3.7,0-7.3,2.2-8.8,5.7
	C398.1,166.4,400.4,172.1,405.3,174.4z M483.7,230.6c3.7,3.9,9.8,4.2,13.7,0.5c3.9-3.7,4.2-9.8,0.5-13.7
	c-6.8-7.3-14.2-14.3-21.9-20.9c-1.8-1.6-4.1-2.3-6.3-2.3c-2.7,0-5.5,1.2-7.4,3.5c-3.5,4.1-3,10.2,1.1,13.6
	C470.5,217.2,477.2,223.8,483.7,230.6z M523,287c2.4,4.8,8.2,6.7,13,4.3s6.7-8.2,4.3-13c-4.5-9-9.6-17.8-15.1-26.2
	c-1.9-2.9-5-4.4-8.1-4.4c-1.8,0-3.7,0.5-5.4,1.6c-4.4,3-5.7,9-2.7,13.5C514,270.6,518.8,278.7,523,287z M339.1,155.5
	c9.2,1.2,18.5,3.1,27.5,5.4c5.1,1.3,10.5-1.8,11.8-6.9s-1.8-10.5-6.9-11.8c-9.7-2.5-19.7-4.4-29.6-5.9c-0.5,0-0.8-0.1-1.3-0.1
	c-4.8,0-9,3.6-9.6,8.4C330.1,149.9,333.8,154.8,339.1,155.5z M270.2,155.9c9.2-1.3,18.5-2.3,27.9-2.5c5.4-0.1,9.6-4.7,9.3-10
	c-0.1-5.3-4.4-9.4-9.7-9.4c-0.1,0-0.2,0-0.4,0c-10,0-20.2,1.3-30.1,2.7c-5.3,0.8-9,5.7-8.1,11.1C259.9,153,264.8,156.6,270.2,155.9z
	 M283.8,276.7c3.8-3.8,3.8-9.9,0-13.7c-1.9-1.9-4.4-2.9-6.8-2.9c-2.5,0-5,1-6.8,2.9L143.9,389.2c-3.8,3.8-3.8,9.9,0,13.7
	l126.2,126.2c3.8,3.8,9.9,3.8,13.7,0c3.8-3.8,3.8-9.9,0-13.7L174.2,405.7h277.4c5.4,0,9.7-4.3,9.7-9.7s-4.3-9.7-9.7-9.7H174.2
	L283.8,276.7z"/>
</svg>
