<?xml version="1.0" encoding="utf-8"?>
<!-- Generator: Adobe Illustrator 18.1.1, SVG Export Plug-In . SVG Version: 6.00 Build 0)  -->
<svg version="1.1" id="Layer_1" xmlns="http://www.w3.org/2000/svg" xmlns:xlink="http://www.w3.org/1999/xlink" x="0px" y="0px"
	 viewBox="0 0 612 792" enable-background="new 0 0 612 792" xml:space="preserve">
<path d="M86.5,270.7c1.6,1,3.3,1.4,5.1,1.4c3.2,0,6.5-1.7,8.2-4.5c4.9-7.9,10.4-15.7,16.1-22.8c3.3-4.2,2.6-10.3-1.6-13.6
	s-10.3-2.6-13.6,1.6c-6.2,7.9-12.1,16.1-17.5,24.7C80.6,261.8,82,267.8,86.5,270.7z M137.8,217.4c2.3,0,4.7-0.8,6.5-2.5
	c6.9-6.2,14.2-12.1,21.9-17.5c4.4-3.1,5.4-9.2,2.3-13.5c-3.1-4.4-9.1-5.4-13.5-2.3c-8.2,5.9-16.1,12.2-23.7,18.8
	c-3.9,3.6-4.3,9.7-0.7,13.7C132.4,216.3,135.1,217.4,137.8,217.4z M53.7,405.6c5.4,0,9.7-3,9.6-8.4v-1.4c0-8.4,0.5-16.9,1.3-25.1
	c0.6-5.4-3.3-10.2-8.6-10.8c-5.4-0.4-10,3.1-10.6,8.5c-1,8.8-1.3,17.6-1.3,26.7v2.4C43.9,402.9,48.2,405.6,53.7,405.6
	C53.6,405.6,53.6,405.6,53.7,405.6z M60.1,337.4c0.8,0.2,1.8,0.4,2.6,0.4c4.3,0,8.1-2.7,9.3-7.1c2.5-9,5.5-17.9,9.1-26.5
	c2-4.9-0.4-10.6-5.3-12.7c-4.9-2-10.6,0.4-12.7,5.4c-3.8,9.3-7.1,18.9-9.8,28.6C52,330.6,55,335.9,60.1,337.4z M73.8,466.9
	c-2.7-8.8-4.9-18-6.6-27.1c-1-5.3-6-8.8-11.2-7.8c-5.3,1-8.7,6-7.8,11.2c1.8,9.9,4.2,19.8,7.2,29.4c1.3,4.2,5.1,6.9,9.3,6.9
	c1,0,1.9-0.1,2.9-0.5C72.4,477.5,75.3,472.1,73.8,466.9z M197.3,177.7c1.4,0,2.9-0.4,4.2-1c8.4-4.1,17.1-7.5,25.9-10.5
	c5-1.7,7.8-7.3,6.1-12.3c-1.8-5-7.3-7.8-12.3-6.1c-9.4,3.2-18.9,7.1-28,11.5c-4.9,2.3-6.9,8.1-4.5,12.9
	C190.2,175.6,193.6,177.7,197.3,177.7z M521.5,284.4c1.7,3.3,5.1,5.3,8.6,5.3c1.6,0,3-0.4,4.4-1.1c4.8-2.5,6.6-8.4,4.2-13
	c-4.7-8.8-9.8-17.7-15.4-25.9c-3-4.4-9-5.6-13.5-2.6c-4.4,3-5.6,9.1-2.6,13.5C512.4,268,517.2,276.2,521.5,284.4z M537.2,322.2
	c2.9,8.8,5.1,17.9,6.9,27.1c1,4.7,5,7.9,9.6,7.9c0.6,0,1.2,0,1.9-0.2c5.3-1.1,8.7-6.1,7.7-11.4c-1.9-9.9-4.4-19.7-7.4-29.3
	c-1.7-5.1-7.2-7.9-12.2-6.3C538.4,311.7,535.6,317.2,537.2,322.2z M265.6,156.4c0.5,0,1.1,0,1.6-0.1c9.2-1.4,18.5-2.4,27.9-2.9
	c5.4-0.2,9.6-4.8,9.3-10.2c-0.2-5.4-5.3-9.4-10.2-9.3c-10,0.5-20.2,1.4-30,3.1c-5.3,0.8-8.8,5.9-8,11.1
	C256.9,152.9,260.9,156.4,265.6,156.4z M336,155c9.3,1.2,18.5,2.9,27.5,5c0.8,0.2,1.6,0.2,2.3,0.2c4.4,0,8.4-3,9.4-7.4
	c1.3-5.3-1.9-10.5-7.2-11.7c-9.7-2.4-19.7-4.2-29.8-5.5c-5.4-0.7-10.2,3.1-10.9,8.5C326.9,149.5,330.7,154.4,336,155z M402.5,173.1
	c8.5,3.7,17,7.9,25,12.7c1.6,0.8,3.2,1.3,4.9,1.3c3.3,0,6.6-1.8,8.4-4.8c2.7-4.7,1.1-10.6-3.5-13.3c-8.7-5-17.8-9.6-27-13.6
	c-4.9-2.2-10.6,0.1-12.8,5C395.3,165.2,397.4,171,402.5,173.1z M495.5,215c-6.9-7.3-14.3-14.2-22.1-20.7c-4.1-3.5-10.3-2.9-13.6,1.2
	c-3.5,4.2-2.9,10.3,1.2,13.6c7.2,6,14,12.4,20.4,19.1c1.9,2,4.4,3,7.1,3c2.4,0,4.8-0.8,6.7-2.6C499,225,499.2,218.8,495.5,215z
	 M523.8,523.8c-4.5-2.9-10.5-1.6-13.4,3c-5,7.9-10.5,15.5-16.5,22.7c-3.3,4.2-2.7,10.3,1.3,13.6c1.8,1.4,3.9,2.2,6.1,2.2
	c2.9,0,5.6-1.2,7.5-3.6c6.3-7.8,12.3-16,17.7-24.5C529.6,532.8,528.3,526.7,523.8,523.8z M465.5,578.9c-7.1,6.1-14.5,12-22.1,17.2
	c-4.4,3-5.5,9.1-2.5,13.5c1.9,2.7,4.9,4.2,8,4.2c1.9,0,3.8-0.6,5.5-1.7c8.2-5.6,16.3-12,23.9-18.5c4.1-3.6,4.4-9.7,1-13.7
	C475.6,575.8,469.4,575.4,465.5,578.9z M567.9,389.7c-0.1-5.4-4.8-9.8-9.9-9.4c-5.4,0.1-9.6,4.5-9.4,9.9c0,1.9,0.1,3.8,0.1,5.9
	c0,9.3-0.6,18.8-1.6,28c-0.6,5.4,3.2,10.2,8.5,10.8c0.4,0,0.7,0.1,1.1,0.1c4.9,0,9.1-3.7,9.7-8.6c1.2-9.9,1.7-20.1,1.7-30.1
	C568,393.9,568,391.8,567.9,389.7z M550.9,457.5c-5.1-1.6-10.5,1.4-12.1,6.6c-2.6,8.8-5.7,17.8-9.4,26.4c-2,4.9,0.2,10.6,5.1,12.7
	c1.2,0.5,2.5,0.7,3.8,0.7c3.8,0,7.4-2.3,9-6c3.9-9.3,7.3-18.9,10.2-28.4C559,464.4,556.1,459.1,550.9,457.5z M407.7,616.5
	c-8.5,3.9-17.2,7.3-26.1,10.3c-5.1,1.7-7.9,7.2-6.2,12.3c1.3,4.1,5.1,6.7,9.2,6.7c1,0,2-0.1,3-0.5c9.6-3.1,19-6.8,28.1-11.1
	c4.9-2.3,6.9-8,4.8-12.9C418.4,616.4,412.5,614.2,407.7,616.5z M206.8,617.7c-8.5-3.8-16.9-8.1-24.9-12.9
	c-4.5-2.7-10.5-1.2-13.3,3.3c-2.7,4.7-1.2,10.5,3.3,13.3c8.6,5.1,17.7,9.8,26.8,14c1.3,0.6,2.6,0.8,3.9,0.8c3.7,0,7.3-2.2,8.8-5.7
	C213.8,625.6,211.7,619.8,206.8,617.7z M128.4,561.5c-3.7-3.9-9.8-4.2-13.7-0.5c-3.9,3.7-4.2,9.8-0.5,13.7
	c6.8,7.3,14.2,14.3,21.9,20.9c1.8,1.6,4.1,2.3,6.3,2.3c2.7,0,5.5-1.2,7.4-3.5c3.5-4.1,3-10.2-1.1-13.6
	C141.5,574.8,134.7,568.3,128.4,561.5z M89.1,505c-2.4-4.8-8.2-6.7-13-4.3s-6.7,8.2-4.3,13c4.5,9,9.6,17.8,15.1,26.2
	c1.9,2.9,5,4.4,8.1,4.4c1.8,0,3.7-0.5,5.4-1.6c4.4-3,5.7-9,2.7-13.5C97.9,521.4,93.2,513.3,89.1,505z M272.9,636.6
	c-9.2-1.2-18.5-3.1-27.5-5.4c-5.1-1.3-10.5,1.8-11.8,6.9s1.8,10.5,6.9,11.8c9.7,2.5,19.7,4.4,29.6,5.9c0.5,0,0.8,0.1,1.3,0.1
	c4.8,0,9-3.6,9.6-8.4C282,642.2,278.3,637.3,272.9,636.6z M341.7,636.1c-9.2,1.3-18.5,2.3-27.9,2.5c-5.4,0.1-9.6,4.7-9.3,10
	c0.1,5.3,4.4,9.4,9.7,9.4c0.1,0,0.2,0,0.4,0c10,0,20.2-1.3,30.1-2.7c5.3-0.8,9-5.7,8.1-11.1C352,639.1,347.2,635.4,341.7,636.1z
	 M328.1,515.4c-3.8,3.8-3.8,9.9,0,13.7c1.9,1.9,4.4,2.9,6.8,2.9c2.5,0,5-1,6.8-2.9l126.3-126.2c3.8-3.8,3.8-9.9,0-13.7L341.9,262.9
	c-3.8-3.8-9.9-3.8-13.7,0s-3.8,9.9,0,13.7l109.6,109.7H160.3c-5.4,0-9.7,4.3-9.7,9.7s4.3,9.7,9.7,9.7h277.4L328.1,515.4z"/>
</svg>
