<?xml version="1.0" encoding="utf-8"?>
<!-- Generator: Adobe Illustrator 18.1.1, SVG Export Plug-In . SVG Version: 6.00 Build 0)  -->
<!DOCTYPE svg PUBLIC "-//W3C//DTD SVG 1.1//EN" "http://www.w3.org/Graphics/SVG/1.1/DTD/svg11.dtd">
<svg version="1.1" id="Layer_1" xmlns="http://www.w3.org/2000/svg" xmlns:xlink="http://www.w3.org/1999/xlink" x="0px" y="0px"
	 viewBox="130 -184 512 512" enable-background="new 130 -184 512 512" xml:space="preserve">
<path d="M205.4-32c1.3,0.8,2.8,1.2,4.3,1.2c2.7,0,5.4-1.4,6.9-3.8c4.1-6.6,8.7-13.1,13.5-19.1c2.8-3.5,2.2-8.6-1.3-11.4
	c-3.5-2.8-8.6-2.2-11.4,1.3c-5.2,6.6-10.1,13.5-14.6,20.7C200.4-39.4,201.6-34.4,205.4-32z"/>
<path d="M248.3-76.6c1.9,0,3.9-0.7,5.4-2.1c5.8-5.2,11.9-10.1,18.3-14.6c3.7-2.6,4.5-7.7,1.9-11.3c-2.6-3.7-7.6-4.5-11.3-1.9
	c-6.9,4.9-13.5,10.2-19.8,15.7c-3.3,3-3.6,8.1-0.6,11.5C243.8-77.5,246-76.6,248.3-76.6z"/>
<path d="M177.9,80.9c4.5,0,8.1-2.5,8-7l0-1.2c0-7,0.4-14.1,1.1-21c0.5-4.5-2.8-8.5-7.2-9c-4.5-0.3-8.4,2.6-8.9,7.1
	c-0.8,7.4-1.1,14.7-1.1,22.3l0,2C169.7,78.6,173.3,80.9,177.9,80.9C177.8,80.9,177.8,80.9,177.9,80.9z"/>
<path d="M183.3,23.8c0.7,0.2,1.5,0.3,2.2,0.3c3.6,0,6.8-2.3,7.8-5.9c2.1-7.5,4.6-15,7.6-22.2c1.7-4.1-0.3-8.9-4.4-10.6
	c-4.1-1.7-8.9,0.3-10.6,4.5c-3.2,7.8-5.9,15.8-8.2,23.9C176.5,18.1,179,22.6,183.3,23.8z"/>
<path d="M194.7,132.2c-2.3-7.4-4.1-15.1-5.5-22.7c-0.8-4.4-5-7.4-9.4-6.5c-4.4,0.8-7.3,5-6.5,9.4c1.5,8.3,3.5,16.6,6,24.6
	c1.1,3.5,4.3,5.8,7.8,5.8c0.8,0,1.6-0.1,2.4-0.4C193.6,141,196,136.5,194.7,132.2z"/>
<path d="M298.1-109.8c1.2,0,2.4-0.3,3.5-0.8c7-3.4,14.3-6.3,21.7-8.8c4.2-1.4,6.5-6.1,5.1-10.3c-1.5-4.2-6.1-6.5-10.3-5.1
	c-7.9,2.7-15.8,5.9-23.4,9.6c-4.1,1.9-5.8,6.8-3.8,10.8C292.1-111.5,295-109.8,298.1-109.8z"/>
<path d="M569.3-20.5c1.4,2.8,4.3,4.4,7.2,4.4c1.3,0,2.5-0.3,3.7-0.9c4-2.1,5.5-7,3.5-10.9c-3.9-7.4-8.2-14.8-12.9-21.7
	c-2.5-3.7-7.5-4.7-11.3-2.2c-3.7,2.5-4.7,7.6-2.2,11.3C561.7-34.2,565.7-27.4,569.3-20.5z"/>
<path d="M582.4,11.1c2.4,7.4,4.3,15,5.8,22.7c0.8,3.9,4.2,6.6,8,6.6c0.5,0,1,0,1.6-0.2c4.4-0.9,7.3-5.1,6.4-9.5
	c-1.6-8.3-3.7-16.5-6.2-24.5c-1.4-4.3-6-6.6-10.2-5.3C583.4,2.3,581.1,6.9,582.4,11.1z"/>
<path d="M355.2-127.6c0.4,0,0.9,0,1.3-0.1c7.7-1.2,15.5-2,23.3-2.4c4.5-0.2,8-4,7.8-8.5c-0.2-4.5-4.4-7.9-8.5-7.8
	c-8.4,0.4-16.9,1.2-25.1,2.6c-4.4,0.7-7.4,4.9-6.7,9.3C347.9-130.5,351.3-127.6,355.2-127.6z"/>
<path d="M414.1-128.8c7.8,1,15.5,2.4,23,4.2c0.7,0.2,1.3,0.2,1.9,0.2c3.7,0,7-2.5,7.9-6.2c1.1-4.4-1.6-8.8-6-9.8
	c-8.1-2-16.5-3.5-24.9-4.6c-4.5-0.6-8.5,2.6-9.1,7.1C406.5-133.4,409.7-129.3,414.1-128.8z"/>
<path d="M469.7-113.6c7.1,3.1,14.2,6.6,20.9,10.6c1.3,0.7,2.7,1.1,4.1,1.1c2.8,0,5.5-1.5,7-4c2.3-3.9,0.9-8.9-2.9-11.1
	c-7.3-4.2-14.9-8-22.6-11.4c-4.1-1.8-8.9,0.1-10.7,4.2C463.7-120.2,465.5-115.4,469.7-113.6z"/>
<path d="M547.5-78.6c-5.8-6.1-12-11.9-18.5-17.3c-3.4-2.9-8.6-2.4-11.4,1c-2.9,3.5-2.4,8.6,1,11.4c6,5,11.7,10.4,17.1,16
	c1.6,1.7,3.7,2.5,5.9,2.5c2,0,4-0.7,5.6-2.2C550.5-70.2,550.6-75.4,547.5-78.6z"/>
<path d="M571.2,179.8c-3.8-2.4-8.8-1.3-11.2,2.5c-4.2,6.6-8.8,13-13.8,19c-2.8,3.5-2.3,8.6,1.1,11.4c1.5,1.2,3.3,1.8,5.1,1.8
	c2.4,0,4.7-1,6.3-3c5.3-6.5,10.3-13.4,14.8-20.5C576.1,187.3,575,182.2,571.2,179.8z"/>
<path d="M522.4,225.9c-5.9,5.1-12.1,10-18.5,14.4c-3.7,2.5-4.6,7.6-2.1,11.3c1.6,2.3,4.1,3.5,6.7,3.5c1.6,0,3.2-0.5,4.6-1.4
	c6.9-4.7,13.6-10,20-15.5c3.4-3,3.7-8.1,0.8-11.5C530.9,223.3,525.7,222.9,522.4,225.9z"/>
<path d="M608.1,67.6c-0.1-4.5-4-8.2-8.3-7.9c-4.5,0.1-8,3.8-7.9,8.3c0,1.6,0.1,3.2,0.1,4.9c0,7.8-0.5,15.7-1.3,23.4
	c-0.5,4.5,2.7,8.5,7.1,9c0.3,0,0.6,0.1,0.9,0.1c4.1,0,7.6-3.1,8.1-7.2c1-8.3,1.4-16.8,1.4-25.2C608.2,71.1,608.2,69.3,608.1,67.6z"
	/>
<path d="M593.9,124.3c-4.3-1.3-8.8,1.2-10.1,5.5c-2.2,7.4-4.8,14.9-7.9,22.1c-1.7,4.1,0.2,8.9,4.3,10.6c1,0.4,2.1,0.6,3.2,0.6
	c3.2,0,6.2-1.9,7.5-5c3.3-7.8,6.1-15.8,8.5-23.8C600.7,130.1,598.2,125.6,593.9,124.3z"/>
<path d="M474.1,257.3c-7.1,3.3-14.4,6.1-21.8,8.6c-4.3,1.4-6.6,6-5.2,10.3c1.1,3.4,4.3,5.6,7.7,5.6c0.8,0,1.7-0.1,2.5-0.4
	c8-2.6,15.9-5.7,23.5-9.3c4.1-1.9,5.8-6.7,4-10.8C483,257.2,478.1,255.4,474.1,257.3z"/>
<path d="M306,258.3c-7.1-3.2-14.1-6.8-20.8-10.8c-3.8-2.3-8.8-1-11.1,2.8c-2.3,3.9-1,8.8,2.8,11.1c7.2,4.3,14.8,8.2,22.4,11.7
	c1.1,0.5,2.2,0.7,3.3,0.7c3.1,0,6.1-1.8,7.4-4.8C311.9,264.9,310.1,260.1,306,258.3z"/>
<path d="M240.4,211.3c-3.1-3.3-8.2-3.5-11.5-0.4c-3.3,3.1-3.5,8.2-0.4,11.5c5.7,6.1,11.9,12,18.3,17.5c1.5,1.3,3.4,1.9,5.3,1.9
	c2.3,0,4.6-1,6.2-2.9c2.9-3.4,2.5-8.5-0.9-11.4C251.4,222.4,245.7,217,240.4,211.3z"/>
<path d="M207.5,164c-2-4-6.9-5.6-10.9-3.6c-4,2-5.6,6.9-3.6,10.9c3.8,7.5,8,14.9,12.6,21.9c1.6,2.4,4.2,3.7,6.8,3.7
	c1.5,0,3.1-0.4,4.5-1.3c3.7-2.5,4.8-7.5,2.3-11.3C214.9,177.8,211,171,207.5,164z"/>
<path d="M361.3,274.1c-7.7-1-15.5-2.6-23-4.5c-4.3-1.1-8.8,1.5-9.9,5.8c-1.1,4.3,1.5,8.8,5.8,9.9c8.1,2.1,16.5,3.7,24.8,4.9
	c0.4,0,0.7,0.1,1.1,0.1c4,0,7.5-3,8-7C368.9,278.8,365.8,274.7,361.3,274.1z"/>
<path d="M418.9,273.7c-7.7,1.1-15.5,1.9-23.3,2.1c-4.5,0.1-8,3.9-7.8,8.4c0.1,4.4,3.7,7.9,8.1,7.9c0.1,0,0.2,0,0.3,0
	c8.4,0,16.9-1.1,25.2-2.3c4.4-0.7,7.5-4.8,6.8-9.3C427.5,276.2,423.5,273.1,418.9,273.7z"/>
<path d="M407.5,172.7c-3.2,3.2-3.2,8.3,0,11.5c1.6,1.6,3.7,2.4,5.7,2.4c2.1,0,4.2-0.8,5.7-2.4L524.6,78.6c3.2-3.2,3.2-8.3,0-11.5
	L419-38.5c-3.2-3.2-8.3-3.2-11.5,0c-3.2,3.2-3.2,8.3,0,11.5l91.7,91.8H267.1c-4.5,0-8.1,3.6-8.1,8.1c0,4.5,3.6,8.1,8.1,8.1h232.1
	L407.5,172.7z"/>
</svg>
