<?xml version="1.0" encoding="utf-8"?>
<!-- Generator: Adobe Illustrator 18.1.1, SVG Export Plug-In . SVG Version: 6.00 Build 0)  -->
<svg version="1.1" id="Layer_1" xmlns="http://www.w3.org/2000/svg" xmlns:xlink="http://www.w3.org/1999/xlink" x="0px" y="0px"
	 viewBox="0 0 612 792" enable-background="new 0 0 612 792" xml:space="preserve">
<path fill="#231F20" stroke="#231F20" stroke-width="2" stroke-linecap="round" stroke-linejoin="round" stroke-miterlimit="10" d="
	M332.2,216.4c-5.7-5.7-5.7-15,0-20.7c2.9-2.9,6.6-4.3,10.3-4.3c3.7,0,7.5,1.4,10.3,4.3l189.9,190c5.7,5.7,5.7,15,0,20.7l-189.9,190
	c-5.7,5.7-14.9,5.7-20.7,0c-5.7-5.7-5.7-15,0-20.7l164.9-165H79.6c-8.1,0-14.6-6.5-14.6-14.6s6.5-14.6,14.6-14.6h417.5L332.2,216.4z
	"/>
</svg>
