<?xml version="1.0" encoding="utf-8"?>
<!-- Generator: Adobe Illustrator 18.1.1, SVG Export Plug-In . SVG Version: 6.00 Build 0)  -->
<svg version="1.1" id="Layer_1" xmlns="http://www.w3.org/2000/svg" xmlns:xlink="http://www.w3.org/1999/xlink" x="0px" y="0px"
	 viewBox="0 0 612 792" enable-background="new 0 0 612 792" xml:space="preserve">
<g>
	<path fill="#282828" d="M303.5,284.5c3.2-0.3,6.4-0.1,9.6-0.1c2.1,0,4.3,0.2,6.4,0c4-0.5,9.7,2.4,9.5-5.9c-0.1-7-3.5-8.3-9.4-8.2
		c-5.3,0.1-10.7,0-16-0.4c-5.1-0.4-7,1.4-6.7,6.6C297.2,281.2,297,285.2,303.5,284.5z"/>
	<path fill="#282828" d="M0,90v612h612V90H0z M416.4,288.1c0.7-5.2-0.5-14.6,10.2-14c8.5,0.5,17,0.2,25.5,0.2c4.2,0,7.5,1.1,9.8,5
		c4.8,8.6,3.4,11.9-6.3,12.2c-5.3,0.1-2.5,0-15.5,0c0,0,0,0,0,0c0,0-9.7,0.7-14.1-0.2C422.6,290.5,415.4,294.8,416.4,288.1z
		 M264.1,266.3c2.2-3.5,5.1-4.3,8.9-4.3c26.6,0.1,53.3,0,79.9-0.1c3.9,0,6.7,0.8,8.8,4.4c4.3,7.7,9,15.2,13.6,22.9
		c-9.8,2.9-113.7,3.7-127,1.1C253.8,282.1,259.1,274.3,264.1,266.3z M168.3,287.7c0.4-3,3.5-6.8,7.8-6.9c7.4-0.2,14.1-0.2,21.5-0.2
		c4.1,0,3.7,2.8,3.8,6.4c0.1,4.1-5.7,4.4-8.7,4.4c-3.9,0.1-3.6,0-17.6,0c0,0,0,0,0,0.1c0,0-0.4,0.2-3.5-0.1
		C169.1,291.2,167.7,292.3,168.3,287.7z M122.6,330.3c0.4-23.1,12.3-34.7,35.3-34.7c52,0,104,0,156,0c51.6,0,103.3,0,154.9,0
		c23.1,0,35.4,12.3,35.6,35.7c0.1,11-0.2,22.1,0.1,33.1c0.2,5.8-1.2,8.2-7.6,8.1c-23.9-0.4-47.7-0.3-71.6-0.1
		c-4.8,0-7.7-1.7-10.6-5.5c-36.3-47.8-98.5-47.8-135.4-0.1c-3.3,4.2-6.6,5.4-11.6,5.4c-45.2-0.2-90.5-0.3-135.7,0
		c-7.8,0.1-9.8-2.6-9.5-9.8C123,351.7,122.4,341,122.6,330.3z M400.4,414.5c-0.9,30.1-24.9,54.1-53.7,53.6
		c-29.2-0.5-54-25.7-53.5-54.1c0.5-29.5,26.3-54.1,55.6-53C376.8,362,401.2,387.3,400.4,414.5z M504.3,503.8
		c-0.2,19.7-11,31.3-30.8,32.1c-53,2.3-106.1,0.8-159.1,0.8c-51.3,0-102.5,0.2-153.8-0.1c-27.8-0.2-38.6-11.5-38.8-39.1
		c-0.3-36-0.6-71.9-1.3-107.9c-0.1-7.2,1.7-10,9.4-9.9c43.4,0.5,86.9,0.9,130.3,0.7c9.4,0,10.3,2.7,8.2,11.1
		c-10.2,39.5,5.9,77.7,41.8,95.5c48.9,24.3,106-2.5,117.2-57.4c2.8-13.9,1.8-27.6-2.3-41.1c-1.8-5.9-0.9-8.1,5.8-8.1
		c22.1,0.1,44.2-0.1,66.2-0.7c6.6-0.2,8.4,2.1,8.3,8.6C504.8,426.9,504.8,465.4,504.3,503.8z"/>
</g>
</svg>
