<?xml version="1.0" encoding="utf-8"?>
<!-- Generator: Adobe Illustrator 18.1.1, SVG Export Plug-In . SVG Version: 6.00 Build 0)  -->
<svg version="1.1" id="Layer_1" xmlns="http://www.w3.org/2000/svg" xmlns:xlink="http://www.w3.org/1999/xlink" x="0px" y="0px"
	 viewBox="0 0 612 792" enable-background="new 0 0 612 792" xml:space="preserve">
<g>
	<path fill="#282828" d="M362.9,508.6v-40.5c0-41.5,31.4-75.2,70.2-75.2H612V90H0v612h195.9v-36.3c0,11.3-9.1,20.4-20.4,20.4
		c-11.3,0-20.4-9.1-20.4-20.4V360c0-11.3,9.1-20.4,20.4-20.4c11.3,0,20.4,9.1,20.4,20.4v175.8H612v-27.2L362.9,508.6L362.9,508.6z
		 M288,508.6c-31.9,0-57.8-26.3-57.8-58.8S256.1,393,288,393s57.8,26.3,57.8,58.8C345.9,484.3,320,508.6,288,508.6z"/>
</g>
<g>
	<path fill="#282828" d="M607,95v602H5V95H607 M612,90H0v612h612V90L612,90z"/>
</g>
</svg>
