<?xml version="1.0" encoding="utf-8"?>
<!-- Generator: Adobe Illustrator 18.1.1, SVG Export Plug-In . SVG Version: 6.00 Build 0)  -->
<svg version="1.1" id="Layer_1" xmlns="http://www.w3.org/2000/svg" xmlns:xlink="http://www.w3.org/1999/xlink" x="0px" y="0px"
	 viewBox="0 0 612 792" enable-background="new 0 0 612 792" xml:space="preserve">
<g>
	<rect x="237" y="411" fill="#282828" width="70" height="70"/>
	<rect x="154" y="495" fill="#282828" width="69" height="56"/>
	<rect x="321" y="495" fill="#282828" width="69" height="56"/>
	<rect x="321" y="411" fill="#282828" width="69" height="70"/>
	<rect x="237" y="328" fill="#282828" width="70" height="70"/>
	<rect x="237" y="495" fill="#282828" width="70" height="56"/>
	<rect x="321" y="328" fill="#282828" width="69" height="70"/>
	<rect x="154" y="328" fill="#282828" width="69" height="70"/>
	<rect x="154" y="411" fill="#282828" width="69" height="70"/>
	<path fill="#282828" d="M406.8,238.1c0,6.9-0.1,12.5,0,18.1c0.1,7.7-2.9,12.9-11.2,13.4c-7.8,0.5-12.2-4.1-12.5-13.1
		c-0.2-5.8,0-11.6,0-18.2c-10.6,6.3-14.6,16-11.7,26.2c3,10.6,13.1,18.3,23.8,18.2c10.9-0.1,20.6-7.7,23.5-18.5
		C421.5,254.1,417.5,244.4,406.8,238.1z"/>
	<path fill="#282828" d="M244.7,237.7c0,7,0.1,12.6,0,18.2c-0.1,9.6-3.7,13.8-11.4,13.9c-7.6,0-11.6-4.4-11.9-13.7
		c-0.2-5.7,0-11.4,0-18.4c-11.8,8.6-14.8,17.2-11.2,28.2c3.3,10.1,13.3,17.3,23.5,16.9c10.8-0.3,20.5-8.1,23.4-18.7
		C259.9,254.2,255.7,244.6,244.7,237.7z"/>
	<rect x="404" y="495" fill="#282828" width="70" height="56"/>
	<path fill="#282828" d="M0,90v612h612V90H0z M455.4,581.9c-94.5,0-189,0.4-283.5,0.4c-22,0-35.1-11.6-35.2-33.4
		c-0.2-77.8-0.1-154-0.1-231.8c0-1.8,0.2-3,0.4-3c118.6,0,239,0,351,0c0,0,0,0.5,0,3.8c0,75.6,2,151.4,1.9,227
		C489.9,569.2,479.5,581.9,455.4,581.9z M491.9,286c-118.5,0-236.4,0-354.6,0c0-14-0.7-23.7,0.7-36c1.7-15,15.4-23.5,31.1-23.7
		c17.3-0.2,39.9-0.1,53.9-0.1c0-9.4,0-17.8,0-26.2c0-3.5-0.9-6.9-0.7-10.4c0.5-7.4,3.6-12,11.1-11.9c7.5,0.1,11.3,4.6,11.3,12.2
		c0,9.8,0.1,19.5,0,29.3c-0.1,4.5,1,7.1,6.3,7.1c43.4-0.1,86.9-0.1,132.2-0.1c0-9.9,0-19.2,0-28.5c0-3.5-0.3-7,0.4-10.4
		c1.2-6.4,5.4-10,12-9.7c6.9,0.4,11.2,4.3,11.3,11.4c0.2,11.9,0.1,23.8,0.1,37.1c18,0,34.4,0,50.7,0c21.1,0.1,34.1,11.3,34.3,32.4
		C492,268.1,491.9,286,491.9,286z"/>
	<rect x="404" y="328" fill="#282828" width="70" height="70"/>
	<rect x="404" y="411" fill="#282828" width="70" height="70"/>
</g>
</svg>
