<?xml version="1.0" encoding="utf-8"?>
<!-- Generator: Adobe Illustrator 18.1.1, SVG Export Plug-In . SVG Version: 6.00 Build 0)  -->
<svg version="1.1" id="Layer_1" xmlns="http://www.w3.org/2000/svg" xmlns:xlink="http://www.w3.org/1999/xlink" x="0px" y="0px"
	 viewBox="0 0 612 792" enable-background="new 0 0 612 792" xml:space="preserve">
<g>
	
		<rect x="316" y="451.1" transform="matrix(0.2772 0.9608 -0.9608 0.2772 721.1528 49.8878)" fill="#231F20" width="22.8" height="106.3"/>
	<path fill="#231F20" d="M229.6,575.9c3.5,12.1,13.1,19.1,25.2,15.6L582,496.3V322.4L186.6,437.3L229.6,575.9z M385.7,459.8
		l14.7,51.1l-131.3,37.9l-14.7-51.1L385.7,459.8z"/>
	<path fill="#231F20" d="M259,606.1c-20.1,5.8-39.7-5.8-45.5-26l-68.7-240.7c-5.8-20.1,6.2-41.2,26.3-47L536,187.2
		c20.1-5.8,38.3,5.8,44.1,26l1.9,16.6v-48.2c0-35.1-22.7-63.6-57.8-63.6H93.8C58.7,118,29,146.4,29,181.6v430.1
		c0,35.1,29.7,61.3,64.8,61.3h430.4c35.1,0,57.8-26.1,57.8-61.3v-99.7L259,606.1z"/>
	<path fill="#231F20" d="M540.4,201.8L175.7,307c-12.1,3.5-19.1,16.1-15.6,28.2l14.7,51.1l408.5-117.8l-14.7-51.1
		C565.1,205.3,552.5,198.3,540.4,201.8z"/>
</g>
</svg>
