<?xml version="1.0" encoding="utf-8"?>
<!-- Generator: Adobe Illustrator 18.0.0, SVG Export Plug-In . SVG Version: 6.00 Build 0)  -->
<!DOCTYPE svg PUBLIC "-//W3C//DTD SVG 1.1//EN" "http://www.w3.org/Graphics/SVG/1.1/DTD/svg11.dtd">
<svg version="1.1" id="Layer_1" xmlns="http://www.w3.org/2000/svg" xmlns:xlink="http://www.w3.org/1999/xlink" x="0px" y="0px"
	 viewBox="0 0 512 512" enable-background="new 0 0 512 512" xml:space="preserve">
<g>
	<path fill="#010101" d="M304.2,82.3c-92.3-5.7-130-17.5-176-47.3l35.4,227.5c22.3,14.6,74.6-16.3,96.9-32.2
		C391.4,136.2,390.9,135.3,415,126C422.6,123.1,396.4,88,304.2,82.3z M255.6,160.7l11.5,46.3l-41.7-23.1l-40.4,25.3l9.1-46.8
		l-36.5-30.7l47.3-5.8l17.9-44.2l20.2,43.2l47.6,3.3L255.6,160.7z"/>
	<polygon fill="#010101" points="178.3,473.7 157.7,476.3 91.3,38.3 111.9,35.7 	"/>
</g>
</svg>
