<?xml version="1.0" encoding="utf-8"?>
<!-- Generator: Adobe Illustrator 18.1.1, SVG Export Plug-In . SVG Version: 6.00 Build 0)  -->
<svg version="1.1" id="Layer_1" xmlns="http://www.w3.org/2000/svg" xmlns:xlink="http://www.w3.org/1999/xlink" x="0px" y="0px"
	 viewBox="0 0 612 792" enable-background="new 0 0 612 792" xml:space="preserve">
<g>
	<path fill="#231F20" d="M423,648.4H189c-74.6,0-135.4-60.7-135.4-135.4V279c0-74.6,60.7-135.4,135.4-135.4H423
		c74.6,0,135.4,60.7,135.4,135.4V513C558.4,587.7,497.7,648.4,423,648.4z M189,177.4C133,177.4,87.4,223,87.4,279V513
		c0,56,45.5,101.5,101.5,101.5H423c56,0,101.5-45.5,101.5-101.5V279c0-56-45.5-101.5-101.5-101.5H189z"/>
</g>
<g>
	<path fill="#231F20" d="M460.3,241.7l8.2,11.7c-33.4,25.2-70.6,63.9-111.6,116.2s-72.2,101.2-93.7,146.7l-17.3,11.7
		c-14.4,10-24.1,17.4-29.3,22.3c-2-7.3-6.5-19.4-13.4-36.1l-6.6-15.2c-9.4-21.9-18.1-38-26.1-48.5c-8-10.5-17.1-17.4-27.1-20.9
		c16.9-17.8,32.3-26.7,46.4-26.7c12,0,25.4,16.3,40.1,49l7.3,16.4c26.4-44.5,60.3-87.8,101.7-129.8S420.8,264.2,460.3,241.7z"/>
</g>
</svg>
