<?xml version="1.0" encoding="utf-8"?>
<!-- Generator: Adobe Illustrator 18.1.1, SVG Export Plug-In . SVG Version: 6.00 Build 0)  -->
<svg version="1.1" id="Layer_1" xmlns="http://www.w3.org/2000/svg" xmlns:xlink="http://www.w3.org/1999/xlink" x="0px" y="0px"
	 viewBox="0 0 612 792" enable-background="new 0 0 612 792" xml:space="preserve">
<g id="Carte">
	<path d="M560.6,396.3c0,140.8-114.2,255-255,255c-140.8,0-255-114.2-255-255c0-140.8,114.2-255,255-255
		C446.5,141.3,560.6,255.4,560.6,396.3z M219.4,532.6h9.6v-48.2h-8.5l-11,5.7l1.7,7.6l8.1-4.2h0.2V532.6z M265.8,532.6v-8.5h-14.7
		v-0.1l2.9-3.4c5.5-6.5,11.2-13.7,11.2-22.8c0-6.9-3.4-13.9-14-13.9c-4.3,0-8.5,1.5-10.7,3l1.8,7.5c1.7-1.2,4.1-2.5,7.2-2.5
		c4,0,6.2,2.7,6.2,6.6c0,6.9-5.1,13.5-11.4,21.4l-4.8,6.2v6.5H265.8z M271,531c2.1,1.2,5.5,2.2,9.4,2.2c10.5,0,16.2-7.2,16.2-14.5
		c0-6.5-3.6-10.7-8.2-12.3v-0.1c4.3-2,7-6,7-10.8c0-6.1-4.3-11.6-12.8-11.6c-4,0-7.9,1.2-9.9,2.5l1.3,7.4c1.8-1.2,3.9-1.9,6.1-1.9
		c3.4,0,5.5,2.1,5.5,5.6c0,4.7-4.5,6.2-8.1,6.2h-1v7.1h1.4c4.8,0.1,9,2.3,9,7.7c0,4.1-2.6,7-7.3,7c-2.5,0-5.2-0.7-7.2-1.9L271,531z
		 M326.8,532.6v-11.5h4.7v-7.8h-4.7v-28.9h-9.3l-15.8,30.1v6.6h16.5v11.5H326.8z M310,513.3v-0.2l5.1-10.1c1.2-2.7,2.3-4.8,3.3-7.5
		h0.3c-0.2,2.5-0.5,5.4-0.5,7.9v9.9H310z M359.5,484.4h-19.9l-2.7,24.2c1-0.2,2.2-0.2,3.5-0.2c5.5,0,10.5,2.2,10.5,8.7
		c0,5.1-3.1,8.1-7.8,8.1c-2.7,0-5.1-0.8-6.9-1.6l-1.5,7.6c1.9,1,5.6,1.9,9,1.9c10.5,0,16.8-7.7,16.8-17c0-4.9-1.5-8.5-4.2-11.1
		c-2.8-2.6-7.1-3.6-9.1-3.7c-0.5,0-1,0-1.4,0.1l1.1-8.7h12.8V484.4z M390.3,483.8c-1,0.1-2.6,0.1-4.9,0.5c-4,0.8-8.7,3-11.9,6.5
		c-4.5,4.8-7.9,11.9-7.9,22.4c0,12,5.6,20,14.7,20c9.4,0,13.8-8.6,13.8-17.1c0-9-4.4-14.9-10.9-14.9c-3.3,0-5.8,1.5-7.5,3.8h-0.3
		c1.3-6.1,4.4-11.5,10.8-12.8c1.5-0.3,2.8-0.5,4-0.5V483.8z M380.4,526.2c-3,0-4.8-4.2-4.8-10.5c0-2.3,0.2-3.7,0.4-4.3
		c0.9-2.1,2.4-3.2,4-3.2c3.2,0,4.5,3.9,4.5,7.9C384.5,521.9,383.5,526.2,380.4,526.2z M184.6,543.7c6.3,0,11.3-5.1,11.3-11.3V279.6
		c0-6.3-5.1-11.3-11.3-11.3c-6.3,0-11.3,5.1-11.3,11.3v252.9C173.3,538.7,178.3,543.7,184.6,543.7L184.6,543.7z M225,461.7
		c3.1,0,5.7-2.5,5.7-5.7V279.6c0-3.1-2.5-5.7-5.7-5.7c-3.1,0-5.7,2.5-5.7,5.7V456C219.3,459.1,221.9,461.7,225,461.7L225,461.7z
		 M265.4,467.3c6.3,0,11.3-5.1,11.3-11.3V279.6c0-6.3-5.1-11.3-11.3-11.3c-6.3,0-11.3,5.1-11.3,11.3V456
		C254.1,462.3,259.1,467.3,265.4,467.3L265.4,467.3z M305.8,467.3c6.3,0,11.3-5.1,11.3-11.3V279.6c0-6.3-5.1-11.3-11.3-11.3
		c-6.3,0-11.3,5.1-11.3,11.3V456C294.5,462.3,299.6,467.3,305.8,467.3L305.8,467.3z M346.2,461.7c3.1,0,5.7-2.5,5.7-5.7V279.6
		c0-3.1-2.5-5.7-5.7-5.7c-3.1,0-5.7,2.5-5.7,5.7V456C340.6,459.1,343.1,461.7,346.2,461.7L346.2,461.7z M386.6,467.3
		c6.3,0,11.3-5.1,11.3-11.3V279.6c0-6.3-5.1-11.3-11.3-11.3c-6.3,0-11.3,5.1-11.3,11.3V456C375.3,462.3,380.4,467.3,386.6,467.3
		L386.6,467.3z M427,543.7c6.3,0,11.3-5.1,11.3-11.3V279.6c0-6.3-5.1-11.3-11.3-11.3c-6.3,0-11.3,5.1-11.3,11.3v252.9
		C415.7,538.7,420.8,543.7,427,543.7L427,543.7z"/>
</g>
</svg>
