<?xml version="1.0" encoding="utf-8"?>
<!-- Generator: Adobe Illustrator 18.1.1, SVG Export Plug-In . SVG Version: 6.00 Build 0)  -->
<svg version="1.1" id="Layer_1" xmlns="http://www.w3.org/2000/svg" xmlns:xlink="http://www.w3.org/1999/xlink" x="0px" y="0px"
	 viewBox="0 0 612 792" enable-background="new 0 0 612 792" xml:space="preserve">
<g>
	<path fill="#282828" d="M612,89.2H0v612h42V477.8c0-30.5,28-55.2,56-56.6h42c28,1.4,42,26.1,42,56.6v223.3h14v-149
		c0-24,27-43.5,41-44.6v0.3h11.8h23.7h6.5v-0.3c14,1.1,42,20.6,42,44.6v149h14V504.4c0-30.5,28-55.2,55-56.6h42
		c28,1.4,42,26.1,42,56.6v196.8h138V89.2z M110.2,415.8c-30.5,0-55.2-25.1-55.2-56.2c0-31,24.7-54.2,55.2-54.2s55.2,25.1,55.2,56.2
		C165.4,392.6,140.7,415.8,110.2,415.8z M255.2,503.4c-24,0-43.5-19.8-43.5-44.3c0-24.4,19.5-42.7,43.5-42.7s43.5,19.8,43.5,44.3
		C298.7,485.1,279.2,503.4,255.2,503.4z M402.4,442.4c-30.5,0-55.2-25.1-55.2-56.2c0-31,24.7-54.2,55.2-54.2s55.2,25.1,55.2,56.2
		C457.6,419.1,432.9,442.4,402.4,442.4z"/>
	<polygon fill="#282828" points="42,701.2 182,701.2 182,701.2 	"/>
	<polygon fill="#282828" points="196,701.2 321,701.2 321,701.2 	"/>
	<polygon fill="#282828" points="335,701.2 474,701.2 474,701.2 	"/>
</g>
<g>
	<path fill="#282828" d="M607,95v602H5V95H607 M612,90H0v612h612V90L612,90z"/>
</g>
</svg>
