<?xml version="1.0" encoding="utf-8"?>
<!-- Generator: Adobe Illustrator 18.1.1, SVG Export Plug-In . SVG Version: 6.00 Build 0)  -->
<svg version="1.1" id="Layer_1" xmlns="http://www.w3.org/2000/svg" xmlns:xlink="http://www.w3.org/1999/xlink" x="0px" y="0px"
	 viewBox="0 0 612 792" enable-background="new 0 0 612 792" xml:space="preserve">
<g>
	<g>
		<g>
			<path fill="#231F20" d="M395.9,672.6V479.1h64.9l9.7-75.4h-74.7v-48.1c0-21.8,6-36.7,37.3-36.7H473v-67.4c-6.9-0.9-30.6-3-58.2-3
				c-57.6,0-97,35.1-97,99.7v55.6H253v75.4h65.1v193.4H395.9z"/>
		</g>
	</g>
	<path fill="#231F20" d="M306,687C145.5,687,15,556.4,15,396s130.6-291,291-291s291,130.6,291,291S466.5,687,306,687z M306,149.1
		C169.9,149.1,59.1,259.8,59.1,396c0,136.1,110.7,246.9,246.9,246.9c136.1,0,246.9-110.7,246.9-246.9S442.1,149.1,306,149.1z"/>
</g>
</svg>
