<?xml version="1.0" encoding="utf-8"?>
<!-- Generator: Adobe Illustrator 18.1.1, SVG Export Plug-In . SVG Version: 6.00 Build 0)  -->
<svg version="1.1" id="Layer_1" xmlns="http://www.w3.org/2000/svg" xmlns:xlink="http://www.w3.org/1999/xlink" x="0px" y="0px"
	 viewBox="0 0 612 792" enable-background="new 0 0 612 792" xml:space="preserve">
<g>
	<polygon fill="#282828" points="495.3,257.5 416,238.9 441.1,309.8 	"/>
	<path fill="#282828" d="M358.3,202.4c58,20.1,166.5,52.1,253.7,45.4V90H131.9l5.5,1.5C174.7,116.2,293.6,180,358.3,202.4z
		 M511.7,194.2l14.6,3.9l11.5-9.9l0.9,15.1l12.9,7.9l-14.1,5.5l-3.5,14.7l-9.6-11.7l-15.1,1.2l8.2-12.7L511.7,194.2z"/>
	<path fill="#282828" d="M602.2,355.7l-57.9,144.2l-94.2-98.6l-83.3,141.9L272.3,409l-81.7,111.3L114.7,385
		C98,382.8,19.3,359,0.1,355.9l2.6-15.5c48.1,8,97.3,31.4,180.5,36c102.4,5.6,290.7,8.8,428.8-40.5v-71.3c-4.3,0.3-8.7,0.5-13.1,0.6
		l-53.7,70L507,263.6l-64.2,61.9c-1.3,1.2-3,1.8-4.7,1.7c-0.4,0-0.7-0.1-1.1-0.2c-2.1-0.5-3.7-2-4.5-4l-29.7-83.8L338.2,290
		l-19.8-81.5l-72.7,48.9c-1.1,0.8-2.5,1.1-3.8,1c-0.7,0-1.4-0.2-2.1-0.5c-1.9-0.8-3.3-2.6-3.7-4.7l-14.4-86L153,204.1l-5.8-86.8
		c-5-3-24.5-17.1-38.5-27.2H0v612h612V352.5C608.8,353.6,605.5,354.7,602.2,355.7z M460.6,340.3l4-7.1l3.2,7.5l8,1.6l-6.2,5.4
		l0.9,8.1l-7-4.2L456,355l1.8-8l-5.5-6L460.6,340.3z M359.1,326.7l5.4-9.5l4.3,10.1l10.8,2.2l-8.3,7.2l1.2,10.9l-9.4-5.6l-10,4.5
		l2.5-10.7l-7.4-8.1L359.1,326.7z M250.7,549.5l-12.4,17.7l-6.5-20.6l-20.7-6.4l17.6-12.5l-0.3-21.6l17.3,12.9l20.4-7l-6.9,20.5
		l13,17.3L250.7,549.5z M311,534.6l-9.1,3.4l2.9-9.3l-6-7.6l9.7-0.1l5.4-8.1l3.2,9.2l9.4,2.6l-7.8,5.8l0.4,9.7L311,534.6z
		 M356.3,603.4l-13-4.4l-11,8.2l0.1-13.7l-11.2-7.9l13.1-4.1l4-13.1l7.9,11.2l13.7-0.2l-8.2,11L356.3,603.4z M463.3,545l-2,8.8
		l-5.8-6.9l-9,0.9l4.8-7.6l-3.6-8.3l8.7,2.2l6.8-6l0.6,9l7.8,4.6L463.3,545z"/>
	<polygon fill="#282828" points="430,396.7 291.7,402.4 365.3,506.9 	"/>
	<path fill="#282828" d="M308.3,200.3c-10.5-4.6-21.5-9.7-32.6-15l-41.4-17.8l12.4,74.2L308.3,200.3z"/>
</g>
<g>
	<path fill="#282828" d="M607,95v602H5V95H607 M612,90H0v612h612V90L612,90z"/>
</g>
</svg>
