<?xml version="1.0" encoding="utf-8"?>
<!-- Generator: Adobe Illustrator 18.1.1, SVG Export Plug-In . SVG Version: 6.00 Build 0)  -->
<svg version="1.1" id="Layer_1" xmlns="http://www.w3.org/2000/svg" xmlns:xlink="http://www.w3.org/1999/xlink" x="0px" y="0px"
	 viewBox="0 0 612 792" enable-background="new 0 0 612 792" xml:space="preserve">
<g>
	<path d="M155.6,454.2C155.6,454.2,155.6,454.2,155.6,454.2c-24.3,0-45.6-7.8-63.3-23c-7.1-6.4-17.4-19.6-32.4-41.9
		c-13.7-20.3-27.1-35.8-39.8-46.3c-1.7-1.4-2.4-3.7-1.8-5.9s2.6-3.7,4.8-3.8c15.7-1.3,35.4-6.7,58.7-16
		c23.8-9.6,40.8-15.1,50.8-16.3c3.5-0.4,7-0.6,10.4-0.6c24.1,0,46.9,9.6,68,28.6c16.5,14.9,31.6,35,44.9,59.9c1,1.9,0.8,4.1-0.4,5.8
		c-6.6,9.1-9.5,18.4-8.7,28.3c0.2,2.2-1,4.3-2.9,5.3C211,445.4,181.3,454.2,155.6,454.2z M36.1,342.5c10.8,10.5,21.8,24.1,33,40.6
		c14.1,20.9,24.3,34.3,30.5,39.8c15.6,13.5,34.4,20.3,56,20.3c0,0,0,0,0,0c23.1,0,50-7.8,80.1-23.1c-0.1-10.1,2.9-19.8,8.9-29.1
		c-12.3-22.4-26-40.5-40.9-54c-19-17.1-39.4-25.7-60.6-25.7c-3,0-6,0.2-9.1,0.5c-6.1,0.7-19.5,4-47.9,15.5
		C67.2,334.9,50.5,339.9,36.1,342.5z"/>
	<path d="M134.1,670.9c-1.1,0-2.2-0.3-3.1-1c-1.8-1.3-2.7-3.5-2.2-5.7c3.3-15.3,4.4-35.4,3-59.7c-2.3-25.8-2.4-43.9-0.4-53.8
		c3-16.2,10.3-31,21.9-43.9c21-23.3,54.4-39.1,99.3-47.1c2.1-0.4,4.2,0.5,5.4,2.2c6.3,8.7,14,13.9,23.6,16c2.2,0.5,3.9,2.2,4.2,4.4
		c10.3,57.8,2.9,101.1-22,128.9c-6.4,7-13.4,12.8-21.4,17.6c-8,4.9-24.1,10.8-49.4,18.1c-23.7,6.7-42.5,14.5-55.9,23.1
		C136.2,670.6,135.1,670.9,134.1,670.9z M251.2,471.1c-40.8,7.7-71,22.1-89.8,43c-10.3,11.6-16.7,24.2-19.3,38.6c0,0,0,0.1,0,0.1
		c-1.3,6.1-2.2,19.9,0.6,50.8c0,0.1,0,0.1,0,0.2c1.1,19.9,0.7,36.7-1.2,51c13-6.8,29.3-13,48.5-18.4c23.9-6.8,39.6-12.5,46.7-16.9
		c7.2-4.3,13.3-9.3,18.9-15.5c22-24.6,28.7-63.7,20-116.2C266,484.8,257.9,479.3,251.2,471.1z"/>
	<path d="M290.2,365.6c-1.4,0-2.8-0.5-3.9-1.6c-52-51.5-68.6-99.9-49.2-143.6c4-9.2,13.9-23.6,30.1-44.1
		c15.5-19.4,26.2-36.7,31.8-51.5c0.8-2.1,2.8-3.5,5-3.6c2.2-0.1,4.3,1.2,5.2,3.3c6.4,14.6,17.6,31.6,33.5,50.7
		c16.4,19.5,26.8,34.1,30.9,43.4c19.9,44,4.1,92.8-47,145.1c-1.6,1.6-4,2.1-6.1,1.2c-8.4-3.5-16.9-3.7-25.7-0.6
		c-0.5,0.2-0.9,0.3-1.4,0.3c0,0,0,0,0,0C292.4,365.2,291.3,365.6,290.2,365.6z M304.5,139.7c-6.5,13.1-16,27.7-28.6,43.4
		c-15.4,19.4-25.1,33.4-28.7,41.7c-8.6,19.4-9.2,40.2-1.7,61.7c7.4,21.3,22.9,43.9,46.1,67.3c0.1,0,0.1,0,0.2,0
		c9.9-3.4,19.9-3.5,29.5-0.3c22.7-23.7,37.8-46.7,44.9-68.1c7.2-21.7,6.3-42.6-2.6-62.2c-2.5-5.8-9.7-17.5-29.3-40.8
		C321.5,166.8,311.5,152.5,304.5,139.7z"/>
	<path d="M486.4,670.2c-0.9,0-1.9-0.2-2.7-0.7c-11.7-6.8-33.6-14.1-65-21.8c-28.3-7-48.8-16.1-60.8-26.8
		c-29.8-26.7-40.6-71.1-32.3-131.8c0.1-1,0.5-1.9,1.2-2.7l0.4-0.5c0.7-0.9,1.7-1.5,2.7-1.8c8.9-2.6,15.9-8.2,20.9-16.7
		c1.1-1.9,3.3-2.9,5.4-2.7c43.5,5.5,76.7,18.3,98.6,37.9c14.5,13.1,23.9,29.1,28.2,47.5c2.5,9.3,3.4,26.7,2.8,53.1
		c-0.6,24.7,1.4,44.9,6,60.2c0.6,2.2-0.1,4.5-1.9,5.9C488.8,669.8,487.6,670.2,486.4,670.2z M336.1,493.4
		c-7.1,55.4,2.7,95.5,29.1,119.2c10.7,9.6,29.6,17.8,56.1,24.4c24.9,6.1,43.7,11.9,57,17.6c-2.8-14.5-4-31.9-3.6-51.9
		c0.6-25.1-0.2-41.9-2.4-50c0-0.1,0-0.1-0.1-0.2c-3.8-16.4-11.9-30.1-24.8-41.8c-19.6-17.6-49.6-29.2-89.2-34.7
		C352.6,484.2,345.1,490.1,336.1,493.4z"/>
	<path d="M332.2,416.2c-1.5-4.8-4.1-8.9-8-12.4c-5.5-4.9-11.8-7.2-19-6.7c-7.3,0.4-13.3,3.2-18.2,8.7c-5.2,5.8-7.6,12.3-7.4,19.8
		c0.2,7.4,3.1,13.7,8.5,18.5c5.5,4.9,11.9,7.2,19.6,6.7c7.6-0.4,13.8-3.3,18.7-8.7C333.1,434.4,335.1,425.7,332.2,416.2z"/>
	<path d="M457.1,451.8C457.1,451.8,457.1,451.8,457.1,451.8c-25.7,0-55.5-8.6-88.5-25.6c-2-1-3.1-3.1-3-5.3
		c0.8-10-1.8-18.1-7.9-24.9c-1.5-1.7-1.8-4.1-0.9-6.1c10.2-21,21.6-38.8,34.1-52.9c25.9-28.9,55.6-42,88-38.7
		c9.6,0.8,26.2,5.8,52,15.5c23.4,8.7,42.3,13.5,57.8,14.7c2.2,0.2,4.1,1.7,4.8,3.8c0.7,2.1,0,4.5-1.7,5.9
		c-4.4,3.7-8.9,8.1-13.8,13.5c-7.5,8.4-17.2,22-28.7,40.5c0,0,0,0.1-0.1,0.1c-11,16.9-20,28.5-27.4,35.3c0,0-0.1,0.1-0.1,0.1
		C504,443.7,482.2,451.8,457.1,451.8z M376.9,418c30.1,15.1,57.1,22.8,80.3,22.8c22.3,0,41.6-7.2,57.5-21.3
		c6.6-6.1,15.2-17.3,25.6-33.2c11.9-19,21.9-33.1,29.8-42c2-2.2,4-4.3,6-6.3c-14-2.3-30-6.9-48.8-13.9C503,315,486.5,310,478,309.2
		c-3-0.3-5.9-0.5-8.7-0.5c-25.3,0-48.9,12-70,35.5c-11.2,12.6-21.6,28.4-30.9,47.2C374.1,399,377,407.9,376.9,418z"/>
</g>
</svg>
