<?xml version="1.0" encoding="utf-8"?>
<!-- Generator: Adobe Illustrator 18.1.1, SVG Export Plug-In . SVG Version: 6.00 Build 0)  -->
<svg version="1.1" id="Layer_1" xmlns="http://www.w3.org/2000/svg" xmlns:xlink="http://www.w3.org/1999/xlink" x="0px" y="0px"
	 viewBox="0 0 612 792" enable-background="new 0 0 612 792" xml:space="preserve">
<g>
	<path fill="#231F20" d="M544.8,270.1H344.5c31.9-10.3,77.2-28.4,103.8-55c16.5-16.5,21-40.4,11.8-62.4c-9.1-21.9-29.3-36-51.5-36
		c-14.1,0-35.7,5.6-58.7,32.4c-21.8,25.3-35,53.6-43,76.1c-6.6-16.4-16.4-35.1-31.1-52.2c-18.6-21.8-36.5-26.3-48.1-26.3
		c-18.4,0-35.1,11.7-42.7,29.8c-7.5,18.3-3.8,38,9.8,51.8c19.6,19.6,51.8,33.5,76.6,41.8H67.1c-17.2,0-31.2,14-31.2,31.2v83.1
		c0,5.7,4.7,10.4,10.4,10.4h20.8V644c0,17.2,14,31.2,31.2,31.2h425.8c17.2,0,31.2-14,31.2-31.2V394.7h10.4c5.7,0,10.4-4.7,10.4-10.4
		v-83.1C576,284,562,270.1,544.8,270.1z M555.2,301.2v72.7H316.3v-83.1h228.4C550.5,290.8,555.2,295.5,555.2,301.2z M365.7,162.6
		c14.1-16.5,28.9-25.1,42.9-25.1c13.7,0,26.4,9.1,32.3,23.2c6,14.3,3.2,29.3-7.4,39.8c-28.9,28.9-86.4,47.7-114.2,55.5
		C324.7,234.6,337.5,195.5,365.7,162.6z M204.3,184.4c4.3-10.3,13.5-17,23.5-17c10.4,0,21.5,6.6,32.3,19.1
		c20.4,23.8,30.5,52,35.1,69.1c-22.8-6.6-64.2-20.9-85.6-42.2C201.9,205.8,200,194.9,204.3,184.4z M67.1,290.8h228.4v83.1H56.7
		v-72.7C56.7,295.5,61.4,290.8,67.1,290.8z M87.9,643.9V394.7h207.6v259.6H98.3C92.6,654.3,87.9,649.6,87.9,643.9z M534.4,643.9
		c0,5.7-4.7,10.4-10.4,10.4H316.3V394.7h218V643.9z"/>
</g>
</svg>
