<?xml version="1.0" encoding="utf-8"?>
<!-- Generator: Adobe Illustrator 18.1.1, SVG Export Plug-In . SVG Version: 6.00 Build 0)  -->
<!DOCTYPE svg PUBLIC "-//W3C//DTD SVG 1.1//EN" "http://www.w3.org/Graphics/SVG/1.1/DTD/svg11.dtd">
<svg version="1.1" id="Layer_1" xmlns="http://www.w3.org/2000/svg" xmlns:xlink="http://www.w3.org/1999/xlink" x="0px" y="0px"
	 viewBox="130 -184 512 512" enable-background="new 130 -184 512 512" xml:space="preserve">
<g>
	<path fill="#231F20" d="M585.8-33.2H418.3c26.7-8.6,64.6-23.8,86.8-46c13.8-13.8,17.6-33.8,9.9-52.2c-7.6-18.3-24.5-30.1-43.1-30.1
		c-11.8,0-29.9,4.7-49.1,27.1c-18.2,21.2-29.3,44.8-36,63.7c-5.5-13.7-13.7-29.4-26-43.7c-15.6-18.2-30.5-22-40.2-22
		c-15.4,0-29.4,9.8-35.7,24.9c-6.3,15.3-3.2,31.8,8.2,43.3c16.4,16.4,43.3,28,64.1,35H186.2c-14.4,0-26.1,11.7-26.1,26.1v69.5
		c0,4.8,3.9,8.7,8.7,8.7h17.4v208.5c0,14.4,11.7,26.1,26.1,26.1h356.2c14.4,0,26.1-11.7,26.1-26.1V71h8.7c4.8,0,8.7-3.9,8.7-8.7
		V-7.2C611.9-21.6,600.2-33.2,585.8-33.2z M594.5-7.2v60.8H394.7v-69.5h191.1C590.6-15.9,594.5-12,594.5-7.2z M436-123.2
		c11.8-13.8,24.2-21,35.9-21c11.5,0,22.1,7.6,27,19.4c5,12,2.7,24.5-6.2,33.3c-24.2,24.2-72.3,39.9-95.5,46.4
		C401.7-62.9,412.4-95.6,436-123.2z M301-104.9c3.6-8.6,11.3-14.2,19.7-14.2c8.7,0,18,5.5,27,16c17.1,19.9,25.5,43.5,29.4,57.8
		c-19.1-5.5-53.7-17.5-71.6-35.3C299-87,297.4-96.1,301-104.9z M186.2-15.9h191.1v69.5H177.5V-7.2C177.5-12,181.4-15.9,186.2-15.9z
		 M203.6,279.5V71h173.7v217.2H212.3C207.5,288.2,203.6,284.3,203.6,279.5z M577.1,279.5c0,4.8-3.9,8.7-8.7,8.7H394.7V71h182.4
		V279.5z"/>
</g>
</svg>
