<?xml version="1.0" encoding="utf-8"?>
<!-- Generator: Adobe Illustrator 18.1.1, SVG Export Plug-In . SVG Version: 6.00 Build 0)  -->
<svg version="1.1" id="Layer_1" xmlns="http://www.w3.org/2000/svg" xmlns:xlink="http://www.w3.org/1999/xlink" x="0px" y="0px"
	 viewBox="0 0 612 792" enable-background="new 0 0 612 792" xml:space="preserve">
<g>
	<path fill="#282828" d="M607,95v602H5V95H607 M612,90H0v612h612V90L612,90z"/>
</g>
<g>
	<path fill="#282828" d="M368,260c-35.4,0-62.7,41.7-63,42.2l-11.8,18.6l-11.8-18.6c-0.3-0.4-27.3-42.2-63-42.2
		c-31.1,0-64.4,26.6-64.4,66.1c0,91.3,114.8,140.9,139.1,150.4c24.4-9.5,139.1-59,139.1-150.4C432.4,286.6,399.1,260,368,260z"/>
	<path fill="#282828" d="M0,90v612h612V90H0z M541.1,260.2h-27.6v-49.1l-69.1,63.3c9.9,15,15.8,32.8,15.8,51.8
		c0,106.1-118.7,161.2-153.3,175v51.6h41.9v27.6h-41.9v41.9h-27.6v-41.9h-41.9v-27.6h41.9V501c-35-14-153-69-153-174.8
		c0-50.9,42.2-93.9,92.2-93.9c34.1,0,60.5,23.4,74.8,39.8c14.3-16.3,40.7-39.8,74.8-39.8c21.7,0,41.9,8.1,57.8,21.4l68.8-63H444
		v-27.6h97.2V260.2z"/>
</g>
</svg>
