<?xml version="1.0" encoding="utf-8"?>
<!-- Generator: Adobe Illustrator 18.1.1, SVG Export Plug-In . SVG Version: 6.00 Build 0)  -->
<!DOCTYPE svg PUBLIC "-//W3C//DTD SVG 1.1//EN" "http://www.w3.org/Graphics/SVG/1.1/DTD/svg11.dtd">
<svg version="1.1" id="Layer_1" xmlns="http://www.w3.org/2000/svg" xmlns:xlink="http://www.w3.org/1999/xlink" x="0px" y="0px"
	 viewBox="130 -184 512 512" enable-background="new 130 -184 512 512" xml:space="preserve">
<path fill="#231F20" d="M607.1-65c-10.6-29.6-30.9-52.7-57.2-65c-17.9-8.5-38-12.9-58.2-12.9c-44.7,0-86.1,21.5-105.4,54.8l-2.1,3.6
	l-1.7-2.9c-19.3-33.3-60.7-54.9-105.4-54.9c-20.1,0-40.2,4.5-58.1,12.9c-26.3,12.4-46.6,35.4-57.2,65C149.5-30.2,151.4,9.9,167,42.7
	c35.7,75.4,204.5,223.7,211.7,230c1.5,1.3,3.5,1.8,5.6,1.8c0.4,0,0.8,0,1.2-0.1c1.9-0.2,3.8-1.2,5.2-2.6
	c10-8.8,176-155.1,211.4-229.8C617.5,9.3,619.4-30.7,607.1-65z M586.5,34.8C555.7,100,413.1,229,384.2,254.7
	c-30.3-27-171.1-154.6-201.7-219.3c-13.6-28.8-15.3-64-4.5-94.2c9.1-25.3,26.2-44.9,48.4-55.3c15.6-7.4,33.2-11.3,50.8-11.3
	c38.7,0,74.3,18.2,90.7,46.4l9.1,15.5c1.5,2.5,4.1,4.1,7.1,4.2c2.8,0.1,5.7-1.3,7.4-3.7c0.1-0.2,0.7-1,0.8-1.2l9.1-15.5
	c16.4-28.1,51.9-46.3,90.6-46.3c17.6,0,35.2,3.9,50.9,11.3c22.1,10.4,39.3,30.1,48.3,55.3C601.8-29.1,600.1,6,586.5,34.8z"/>
<path fill="#231F20" d="M282.4-89.4c-39.2,0-71.1,31.9-71.1,71.1c0,11.5,2.8,23,8.2,33.1c1.5,2.9,4.5,4.6,7.6,4.6c1.3,0,2.7-0.3,4-1
	c4.2-2.2,5.8-7.4,3.6-11.6c-4.1-7.7-6.2-16.4-6.2-25.2c0-29.8,24.2-54,54-54c4.7,0,8.6-3.8,8.6-8.6S287.2-89.4,282.4-89.4z"/>
</svg>
