<?xml version="1.0" encoding="utf-8"?>
<!-- Generator: Adobe Illustrator 18.1.1, SVG Export Plug-In . SVG Version: 6.00 Build 0)  -->
<svg version="1.1" id="Layer_1" xmlns="http://www.w3.org/2000/svg" xmlns:xlink="http://www.w3.org/1999/xlink" x="0px" y="0px"
	 viewBox="0 0 612 792" enable-background="new 0 0 612 792" xml:space="preserve">
<path fill="#231F20" d="M572.1,239.7c-12.7-35.4-36.9-63-68.4-77.7c-21.4-10.2-45.4-15.4-69.6-15.4c-53.4,0-102.9,25.7-126,65.5
	l-2.5,4.3l-2-3.5c-23.1-39.8-72.6-65.6-126-65.6c-24,0-48.1,5.4-69.4,15.4c-31.4,14.8-55.7,42.3-68.4,77.7
	c-14.7,40.9-12.4,88.8,6.2,128c42.7,90.1,244.4,267.4,253,274.9c1.8,1.6,4.2,2.2,6.7,2.2c0.5,0,1,0,1.4-0.1c2.3-0.2,4.5-1.4,6.2-3.1
	c12-10.5,210.4-185.4,252.7-274.7C584.6,328.5,586.8,280.7,572.1,239.7z M547.5,358.9c-36.8,77.9-207.3,232.1-241.8,262.8
	C269.5,589.5,101.2,437,64.6,359.7c-16.3-34.4-18.3-76.5-5.4-112.6c10.9-30.2,31.3-53.7,57.9-66.1c18.6-8.8,39.7-13.5,60.7-13.5
	c46.3,0,88.8,21.8,108.4,55.5l10.9,18.5c1.8,3,4.9,4.9,8.5,5c3.3,0.1,6.8-1.6,8.8-4.4c0.1-0.2,0.8-1.2,1-1.4l10.9-18.5
	c19.6-33.6,62-55.3,108.3-55.3c21,0,42.1,4.7,60.8,13.5c26.4,12.4,47,36,57.7,66.1C565.8,282.6,563.8,324.5,547.5,358.9z M184,210.5
	c-46.9,0-85,38.1-85,85c0,13.7,3.3,27.5,9.8,39.6c1.8,3.5,5.4,5.5,9.1,5.5c1.6,0,3.2-0.4,4.8-1.2c5-2.6,6.9-8.8,4.3-13.9
	c-4.9-9.2-7.4-19.6-7.4-30.1c0-35.6,28.9-64.5,64.5-64.5c5.6,0,10.3-4.5,10.3-10.3C194.4,214.8,189.7,210.5,184,210.5z"/>
</svg>
