<?xml version="1.0" encoding="utf-8"?>
<!-- Generator: Adobe Illustrator 18.1.1, SVG Export Plug-In . SVG Version: 6.00 Build 0)  -->
<svg version="1.1" id="Layer_1" xmlns="http://www.w3.org/2000/svg" xmlns:xlink="http://www.w3.org/1999/xlink" x="0px" y="0px"
	 viewBox="0 0 612 792" enable-background="new 0 0 612 792" xml:space="preserve">
<g>
	<path fill="#231F20" d="M378.7,274.9c0-40-32.6-72.6-72.6-72.6s-72.6,32.6-72.6,72.6c0,40.1,32.6,72.6,72.6,72.6
		S378.7,314.9,378.7,274.9z M251.5,274.9c0-30,24.4-54.5,54.5-54.5c30,0,54.5,24.4,54.5,54.5c0,30.1-24.4,54.5-54.5,54.5
		C276,329.3,251.5,304.9,251.5,274.9z"/>
	<path fill="#231F20" d="M504.2,406.6l-77.4-25.8c6.6-12.7,12.9-25.5,18.5-38.5c10-20.9,15-43,15-65.8
		c0-84.6-69.2-153.4-154.3-153.4s-154.3,68.8-154.3,153.4c0,23.1,5,45.3,14.7,65.5c5.7,13,12,26,18.7,38.8l-77.2,25.7L38,666.1
		l131.8-60.8L306,668.9l136.2-63.6L574,666.1L504.2,406.6z M169.8,276.6c0-74.6,61.1-135.3,136.2-135.3S442.2,202,442.2,276.6
		c0,20.1-4.5,39.6-13.4,58.2C391.6,420,327.2,503.9,306,530.3c-21.2-26.4-85.9-110.4-123.1-195.8C174.2,316.5,169.8,297,169.8,276.6
		z M442.2,585.3L306,648.8l-136.2-63.5L65.6,633.4l57.2-212.6l71-23.7c46.2,83,104.5,152.6,105.3,153.4l6.9,8.2l6.9-8.2
		c0.7-0.8,59-70.5,105.1-153.5l71.1,23.7l57.2,212.6L442.2,585.3z"/>
</g>
</svg>
