<?xml version="1.0" encoding="utf-8"?>
<!-- Generator: Adobe Illustrator 18.1.1, SVG Export Plug-In . SVG Version: 6.00 Build 0)  -->
<!DOCTYPE svg PUBLIC "-//W3C//DTD SVG 1.1//EN" "http://www.w3.org/Graphics/SVG/1.1/DTD/svg11.dtd">
<svg version="1.1" id="Layer_1" xmlns="http://www.w3.org/2000/svg" xmlns:xlink="http://www.w3.org/1999/xlink" x="0px" y="0px"
	 viewBox="130 -184 512 512" enable-background="new 130 -184 512 512" xml:space="preserve">
<path fill="#231F20" d="M386,84.1c-22.4,0-40.5,18.2-40.5,40.5c0,12.7,6.1,24.7,16.2,32.3v40.7c0,13.4,10.9,24.3,24.3,24.3
	c13.4,0,24.3-10.9,24.3-24.3v-40.7c10.1-7.6,16.2-19.6,16.2-32.3C426.5,102.3,408.4,84.1,386,84.1z M398.1,145.5l-4,2.3v49.7
	c0,4.5-3.6,8.1-8.1,8.1c-4.5,0-8.1-3.6-8.1-8.1v-49.7l-4-2.3c-7.6-4.4-12.2-12.3-12.2-20.9c0-13.4,10.9-24.3,24.3-24.3
	c13.4,0,24.3,10.9,24.3,24.3C410.3,133.3,405.8,141.1,398.1,145.5z"/>
<path fill="#231F20" d="M531.9,23.4h-16.2v-44.6c0-69.3-58.2-125.7-129.7-125.7c-71.5,0-129.7,56.4-129.7,125.7v44.6h-16.2
	c-22.4,0-40.5,18.2-40.5,40.5v186.5c0,22.4,18.2,40.5,40.5,40.5h291.9c22.4,0,40.5-18.2,40.5-40.5V63.9
	C572.5,41.5,554.3,23.4,531.9,23.4z M272.5-21.2c0-60.4,50.9-109.5,113.5-109.5c62.6,0,113.5,49.1,113.5,109.5v44.6h-227V-21.2z
	 M556.3,250.4c0,13.4-10.9,24.3-24.3,24.3H240.1c-13.4,0-24.3-10.9-24.3-24.3V63.9c0-13.4,10.9-24.3,24.3-24.3h291.9
	c13.4,0,24.3,10.9,24.3,24.3V250.4z"/>
</svg>
