<?xml version="1.0" encoding="utf-8"?>
<!-- Generator: Adobe Illustrator 18.1.1, SVG Export Plug-In . SVG Version: 6.00 Build 0)  -->
<svg version="1.1" id="Layer_1" xmlns="http://www.w3.org/2000/svg" xmlns:xlink="http://www.w3.org/1999/xlink" x="0px" y="0px"
	 viewBox="0 0 612 792" enable-background="new 0 0 612 792" xml:space="preserve">
<path fill="#231F20" d="M306,410.5c-26.8,0-48.4,21.8-48.4,48.4c0,15.2,7.3,29.5,19.4,38.6v48.6c0,16,13,29,29,29s29-13,29-29v-48.6
	c12.1-9.1,19.4-23.4,19.4-38.6C354.4,432.2,332.8,410.5,306,410.5z M320.5,483.9l-4.8,2.7V546c0,5.4-4.3,9.7-9.7,9.7
	s-9.7-4.3-9.7-9.7v-59.4l-4.8-2.7c-9.1-5.3-14.6-14.7-14.6-25c0-16,13-29,29-29s29,13,29,29C335,469.3,329.7,478.6,320.5,483.9z
	 M480.3,337.9H461v-53.3c0-82.8-69.6-150.3-155-150.3s-155,67.4-155,150.3v53.3h-19.4c-26.8,0-48.4,21.8-48.4,48.4v222.9
	c0,26.8,21.8,48.4,48.4,48.4h348.9c26.8,0,48.4-21.8,48.4-48.4V386.3C528.9,359.5,507.1,337.9,480.3,337.9z M170.3,284.6
	c0-72.2,60.8-130.9,135.7-130.9s135.7,58.7,135.7,130.9v53.3H170.3V284.6z M509.5,609.2c0,16-13,29-29,29H131.5c-16,0-29-13-29-29
	V386.3c0-16,13-29,29-29h348.9c16,0,29,13,29,29V609.2z"/>
</svg>
