<?xml version="1.0" encoding="utf-8"?>
<!-- Generator: Adobe Illustrator 18.1.1, SVG Export Plug-In . SVG Version: 6.00 Build 0)  -->
<svg version="1.1" id="Layer_1" xmlns="http://www.w3.org/2000/svg" xmlns:xlink="http://www.w3.org/1999/xlink" x="0px" y="0px"
	 viewBox="0 0 612 792" enable-background="new 0 0 612 792" xml:space="preserve">
<g>
	<path d="M565.4,376.5c0-29.6-16.4-54-49-58.1V151.3c0-5.4-4.4-9.8-9.8-9.8h-39.2c-3.1,0-6.1,1.5-7.9,4
		C354.9,288.4,292.7,288.4,232.6,288.4H124.9c-43.2,0-78.3,35.1-78.3,78.3v19.6c0,43.2,35.1,78.3,78.3,78.3h107.7
		c60.1,0,122.3,0,227.1,142.9c1.8,2.5,4.8,4,7.9,4h39.2c5.4,0,9.8-4.4,9.8-9.8V434.6C549.1,430.5,565.4,406.1,565.4,376.5z
		 M66.1,386.3v-19.6c0-32.4,26.4-58.7,58.7-58.7h97.9v137.1h-97.9C92.5,445.1,66.1,418.7,66.1,386.3z M496.9,591.9h-24.4
		C369.3,452.8,301.1,445.5,242.3,445.1l0,0V308l0,0c59.1-0.4,126.9-7.7,230.1-146.8h24.4L496.9,591.9L496.9,591.9z M516.5,414.9
		v-76.8c21.8,3.6,29.4,19.4,29.4,38.4S538.3,411.3,516.5,414.9z"/>
	<path d="M242.3,591.9l-7.8-5.9c-6.4-4.8-13-16.4-13.7-24.4l-7.8-78.4c-0.5-5.4-5.2-9.2-10.7-8.8c-5.4,0.5-9.3,5.3-8.8,10.7
		l7.8,78.4c1.4,13.5,10.6,29.9,21.5,38.1l7.8,5.9c6.5,4.9,11.8,14.2,11.8,18.6c0,1.7-3.8,4.9-9.8,4.9h-78.3
		c-5.8,0-11.6-5.1-12.3-10.9l-17.2-137.2c-0.7-5.4-5.6-9.2-10.9-8.5c-5.4,0.7-9.2,5.6-8.5,10.9l17.2,137.2c2,15.7,15.9,28,31.7,28
		h78.3c16.2,0,29.4-11,29.4-24.5C261.9,615,253.5,600.3,242.3,591.9z"/>
	<path d="M193.4,327.6h-58.7c-1.4,0-14.2,0.4-26.5,12.7c-3.8,3.8-3.8,10,0,13.8c1.9,1.9,4.4,2.9,6.9,2.9s5-1,6.9-2.9
		c6.5-6.5,12.6-6.9,12.7-6.9h58.7c5.4,0,9.8-4.4,9.8-9.8C203.2,331.9,198.8,327.6,193.4,327.6z"/>
</g>
</svg>
