<?xml version="1.0" encoding="utf-8"?>
<!-- Generator: Adobe Illustrator 18.1.1, SVG Export Plug-In . SVG Version: 6.00 Build 0)  -->
<svg version="1.1" id="Layer_1" xmlns="http://www.w3.org/2000/svg" xmlns:xlink="http://www.w3.org/1999/xlink" x="0px" y="0px"
	 viewBox="0 0 612 792" enable-background="new 0 0 612 792" xml:space="preserve">
<g>
	<path fill="#231F20" d="M111.6,447.4c-28.4,0-51.5-23.1-51.5-51.5s23.1-51.5,51.5-51.5s51.5,23.1,51.5,51.5
		C163.2,424.3,140,447.4,111.6,447.4z M111.6,363.2c-18.1,0-32.8,14.7-32.8,32.8s14.7,32.8,32.8,32.8s32.8-14.7,32.8-32.8
		S129.7,363.2,111.6,363.2z"/>
	<path fill="#231F20" d="M111.6,297.6c-28.4,0-51.5-23.1-51.5-51.5s23.1-51.5,51.5-51.5s51.5,23.1,51.5,51.5S140,297.6,111.6,297.6z
		 M111.6,213.3c-18.1,0-32.8,14.7-32.8,32.8s14.7,32.8,32.8,32.8s32.8-14.7,32.8-32.8S129.7,213.3,111.6,213.3z"/>
	<path fill="#231F20" d="M111.6,597.3c-28.4,0-51.5-23.1-51.5-51.5s23.1-51.5,51.5-51.5s51.5,23.1,51.5,51.5
		C163.2,574.2,140,597.3,111.6,597.3z M111.6,513c-18.1,0-32.8,14.7-32.8,32.8s14.7,32.8,32.8,32.8s32.8-14.7,32.8-32.8
		S129.7,513,111.6,513z"/>
	<path fill="#231F20" d="M542.5,255.5H233.4c-5.2,0-9.4-4.2-9.4-9.4s4.2-9.4,9.4-9.4h309.1c5.2,0,9.4,4.2,9.4,9.4
		C551.9,251.4,547.6,255.5,542.5,255.5z"/>
	<path fill="#231F20" d="M542.5,405.3H233.4c-5.2,0-9.4-4.2-9.4-9.4s4.2-9.4,9.4-9.4h309.1c5.2,0,9.4,4.2,9.4,9.4
		S547.6,405.3,542.5,405.3z"/>
	<path fill="#231F20" d="M542.5,555.2H233.4c-5.2,0-9.4-4.2-9.4-9.4c0-5.2,4.2-9.4,9.4-9.4h309.1c5.2,0,9.4,4.2,9.4,9.4
		C551.8,551,547.6,555.2,542.5,555.2z"/>
</g>
</svg>
