<?xml version="1.0" encoding="utf-8"?>
<!-- Generator: Adobe Illustrator 18.1.1, SVG Export Plug-In . SVG Version: 6.00 Build 0)  -->
<!DOCTYPE svg PUBLIC "-//W3C//DTD SVG 1.1//EN" "http://www.w3.org/Graphics/SVG/1.1/DTD/svg11.dtd">
<svg version="1.1" id="Layer_1" xmlns="http://www.w3.org/2000/svg" xmlns:xlink="http://www.w3.org/1999/xlink" x="0px" y="0px"
	 viewBox="130 -184 512 512" enable-background="new 130 -184 512 512" xml:space="preserve">
<g>
	<path fill="#231F20" d="M192.2-70.4c-15,0-27.2,12.2-27.2,27.2s12.2,27.2,27.2,27.2c15,0,27.2-12.2,27.2-27.2
		S207.2-70.4,192.2-70.4z"/>
	<path fill="#231F20" d="M598.2-34.4H271.4c-4.9,0-8.8-3.9-8.8-8.8s4-8.8,8.8-8.8h326.8c4.9,0,8.8,3.9,8.8,8.8S603-34.4,598.2-34.4z
		"/>
</g>
<g>
	<path fill="#231F20" d="M192.2,38.4c-15,0-27.2,12.2-27.2,27.2s12.2,27.2,27.2,27.2c15,0,27.2-12.2,27.2-27.2
		S207.2,38.4,192.2,38.4z"/>
	<path fill="#231F20" d="M598.2,74.4H271.4c-4.9,0-8.8-3.9-8.8-8.8s4-8.8,8.8-8.8h326.8c4.9,0,8.8,3.9,8.8,8.8S603,74.4,598.2,74.4z
		"/>
</g>
<g>
	<path fill="#231F20" d="M192.2,147.1c-15,0-27.2,12.2-27.2,27.2c0,15,12.2,27.2,27.2,27.2c15,0,27.2-12.2,27.2-27.2
		C219.4,159.3,207.2,147.1,192.2,147.1z"/>
	<path fill="#231F20" d="M598.2,183.1H271.4c-4.9,0-8.8-3.9-8.8-8.8c0-4.9,4-8.8,8.8-8.8h326.8c4.9,0,8.8,3.9,8.8,8.8
		C607,179.2,603,183.1,598.2,183.1z"/>
</g>
</svg>
