<?xml version="1.0" encoding="utf-8"?>
<!-- Generator: Adobe Illustrator 18.1.1, SVG Export Plug-In . SVG Version: 6.00 Build 0)  -->
<svg version="1.1" id="Layer_1" xmlns="http://www.w3.org/2000/svg" xmlns:xlink="http://www.w3.org/1999/xlink" x="0px" y="0px"
	 viewBox="0 0 612 792" enable-background="new 0 0 612 792" xml:space="preserve">
<g>
	<path fill="#231F20" d="M551.2,292.4H60.8c-16.9,0-30.7-13.7-30.7-30.7s13.8-30.6,30.7-30.6h490.4c16.9,0,30.7,13.7,30.7,30.7
		S568.2,292.4,551.2,292.4z"/>
	<path fill="#231F20" d="M551.2,426.6H60.8c-16.9,0-30.7-13.7-30.7-30.7c0-16.9,13.7-30.7,30.7-30.7h490.4
		c16.9,0,30.7,13.7,30.7,30.7C581.9,412.9,568.2,426.6,551.2,426.6z"/>
	<path fill="#231F20" d="M551.2,560.8H60.8c-16.9,0-30.7-13.7-30.7-30.7c0-16.9,13.7-30.7,30.7-30.7h490.4
		c16.9,0,30.7,13.7,30.7,30.7C581.9,547.1,568.2,560.8,551.2,560.8z"/>
</g>
</svg>
