<?xml version="1.0" encoding="utf-8"?>
<!-- Generator: Adobe Illustrator 18.1.1, SVG Export Plug-In . SVG Version: 6.00 Build 0)  -->
<svg version="1.1" id="Layer_1" xmlns="http://www.w3.org/2000/svg" xmlns:xlink="http://www.w3.org/1999/xlink" x="0px" y="0px"
	 viewBox="0 0 612 792" enable-background="new 0 0 612 792" xml:space="preserve">
<g>
	<path fill="#231F20" d="M534.7,177.7H77.4c-28.7,0-52,23.3-52,52v332.5c0,28.7,23.3,52,52,52h457.2c28.7,0,52-23.3,52-52V229.7
		C586.6,201,563.3,177.7,534.7,177.7z M565.8,562.3c0,17.2-14,31.2-31.2,31.2H77.4c-17.2,0-31.2-14-31.2-31.2V229.7
		c0-17.2,14-31.2,31.2-31.2h457.2c17.2,0,31.2,14,31.2,31.2V562.3z"/>
	<path fill="#231F20" d="M527.9,221.8L330.7,392.2c-13.4,11.6-36,11.6-49.4,0L84.2,221.8c-4.3-3.7-10.9-3.3-14.7,1.1
		c-3.7,4.3-3.2,10.9,1.1,14.7l197.2,170.2c10.5,9.1,24.4,13.6,38.2,13.6s27.7-4.5,38.2-13.6l197.1-170.2c4.3-3.7,4.8-10.3,1.1-14.7
		C538.8,218.6,532.2,218.1,527.9,221.8z"/>
</g>
</svg>
