<?xml version="1.0" encoding="utf-8"?>
<!-- Generator: Adobe Illustrator 18.1.1, SVG Export Plug-In . SVG Version: 6.00 Build 0)  -->
<!DOCTYPE svg PUBLIC "-//W3C//DTD SVG 1.1//EN" "http://www.w3.org/Graphics/SVG/1.1/DTD/svg11.dtd">
<svg version="1.1" id="Layer_1" xmlns="http://www.w3.org/2000/svg" xmlns:xlink="http://www.w3.org/1999/xlink" x="0px" y="0px"
	 viewBox="130 -184 512 512" enable-background="new 130 -184 512 512" xml:space="preserve">
<g>
	<path fill="#231F20" d="M577.3-110.6H194.7c-24,0-43.5,19.5-43.5,43.5v278.2c0,24,19.5,43.5,43.5,43.5h382.5
		c24,0,43.5-19.5,43.5-43.5V-67.1C620.7-91.1,601.2-110.6,577.3-110.6z M603.3,211.1c0,14.4-11.7,26.1-26.1,26.1H194.7
		c-14.4,0-26.1-11.7-26.1-26.1V-67.1c0-14.4,11.7-26.1,26.1-26.1h382.5c14.4,0,26.1,11.7,26.1,26.1V211.1z"/>
	<path fill="#231F20" d="M571.6-73.7L406.6,68.8c-11.2,9.7-30.1,9.7-41.3,0L200.4-73.7c-3.6-3.1-9.1-2.8-12.3,0.9
		c-3.1,3.6-2.7,9.1,0.9,12.3L354,81.9c8.8,7.6,20.4,11.4,32,11.4s23.2-3.8,32-11.4L582.9-60.5c3.6-3.1,4-8.6,0.9-12.3
		C580.7-76.4,575.2-76.8,571.6-73.7z"/>
</g>
</svg>
