<?xml version="1.0" encoding="utf-8"?>
<!-- Generator: Adobe Illustrator 18.1.1, SVG Export Plug-In . SVG Version: 6.00 Build 0)  -->
<svg version="1.1" id="Layer_1" xmlns="http://www.w3.org/2000/svg" xmlns:xlink="http://www.w3.org/1999/xlink" x="0px" y="0px"
	 viewBox="0 0 612 792" enable-background="new 0 0 612 792" xml:space="preserve">
<g>
	<path fill="#282828" d="M331.9,292.3c-17.2,0-35.4,24.3-45.9,63.4h91.7C367.3,316.7,349.1,292.3,331.9,292.3z"/>
	<path fill="#282828" d="M0,90v612h612V90H0z M417.2,699.5H287.1H151.5L181,355.7h76.9c12.7-54.4,40.3-90.5,74.1-90.5
		c33.7,0,61.4,36.1,74,90.5h76.9l17.4,343.8H417.2z"/>
</g>
<g>
	<path fill="#282828" d="M607,95v602H5V95H607 M612,90H0v612h612V90L612,90z"/>
</g>
</svg>
