<?xml version="1.0" encoding="utf-8"?>
<!-- Generator: Adobe Illustrator 18.1.1, SVG Export Plug-In . SVG Version: 6.00 Build 0)  -->
<svg version="1.1" id="Layer_1" xmlns="http://www.w3.org/2000/svg" xmlns:xlink="http://www.w3.org/1999/xlink" x="0px" y="0px"
	 viewBox="0 0 612 792" enable-background="new 0 0 612 792" xml:space="preserve">
<path fill="#231F20" d="M535.1,526.9c-1.7-1-3.5-1.5-5.4-1.5c-3.4,0-6.7,1.7-8.6,4.8c-5.1,8.3-10.8,16.3-16.9,23.9
	c-3.5,4.4-2.8,10.8,1.6,14.2c4.4,3.5,10.8,2.8,14.2-1.6c6.5-8.2,12.7-16.9,18.2-25.8C541.3,536.1,539.8,529.9,535.1,526.9z
	 M481.6,582.6c-2.4,0-4.8,0.9-6.8,2.6c-7.2,6.5-14.9,12.6-22.9,18.2c-4.6,3.2-5.7,9.6-2.4,14.1c3.2,4.6,9.5,5.7,14.1,2.4
	c8.6-6.1,16.9-12.7,24.7-19.6c4.2-3.7,4.5-10.1,0.8-14.3C487.1,583.7,484.4,582.6,481.6,582.6z M569.4,386c-5.6,0-10.1,3.1-10,8.7
	v1.5c0,8.8-0.4,17.6-1.3,26.2c-0.6,5.6,3.5,10.7,9,11.2c5.6,0.4,10.5-3.3,11.1-8.9c0.9-9.3,1.4-18.4,1.4-27.9v-2.5
	C579.6,388.9,575.1,386,569.4,386C569.5,386,569.5,386,569.4,386z M562.6,457.3c-0.9-0.3-1.8-0.4-2.7-0.4c-4.4,0-8.5,2.9-9.7,7.4
	c-2.6,9.4-5.8,18.7-9.5,27.7c-2.1,5.2,0.4,11.1,5.6,13.2c5.1,2.1,11.1-0.4,13.2-5.6c4-9.7,7.4-19.8,10.2-29.9
	C571.2,464.4,568,458.8,562.6,457.3z M548.4,322c2.8,9.2,5.1,18.8,6.9,28.4c1,5.5,6.2,9.2,11.8,8.2c5.5-1,9.2-6.3,8.2-11.8
	c-1.9-10.4-4.4-20.7-7.4-30.7c-1.3-4.4-5.3-7.2-9.7-7.2c-1,0-2,0.1-3,0.4C549.8,311,546.8,316.7,548.4,322z M419.4,624
	c-1.5,0-2.9,0.3-4.4,1c-8.8,4.2-17.9,7.9-27,11c-5.3,1.8-8.1,7.6-6.3,12.9c1.8,5.3,7.6,8.1,12.9,6.3c9.9-3.4,19.7-7.4,29.2-11.9
	c5.1-2.4,7.2-8.5,4.8-13.5C426.8,626.1,423.2,624,419.4,624z M81,512.6c-1.8-3.5-5.3-5.5-9-5.5c-1.6,0-3.2,0.4-4.7,1.1
	c-5,2.6-6.9,8.7-4.3,13.7c4.8,9.3,10.2,18.4,16.1,27.1c3.1,4.6,9.4,5.9,14.1,2.7c4.6-3.1,5.9-9.4,2.7-14.1
	C90.5,529.7,85.5,521.2,81,512.6z M64.6,473.1c-2.9-9.2-5.4-18.8-7.2-28.3c-0.9-4.9-5.2-8.2-9.9-8.2c-0.6,0-1.3,0.1-1.9,0.2
	c-5.5,1.1-9.1,6.4-8,11.9c2,10.3,4.6,20.6,7.8,30.6c1.7,5.3,7.4,8.3,12.7,6.6C63.3,484.1,66.3,478.4,64.6,473.1z M348.1,646.2
	c-0.5,0-1.1,0-1.6,0.1c-9.6,1.5-19.4,2.5-29.1,3c-5.6,0.2-9.9,5-9.7,10.6c0.2,5.6,5.5,9.9,10.6,9.7c10.5-0.5,21-1.5,31.4-3.2
	c5.5-0.9,9.3-6.1,8.4-11.6C357.3,649.8,353,646.2,348.1,646.2z M274.6,647.6c-9.7-1.2-19.4-3-28.7-5.3c-0.8-0.2-1.6-0.3-2.4-0.3
	c-4.6,0-8.7,3.1-9.8,7.7c-1.3,5.4,2,10.9,7.4,12.3c10.1,2.5,20.6,4.4,31,5.7c5.6,0.8,10.6-3.3,11.3-8.8
	C284.1,653.4,280.2,648.3,274.6,647.6z M205.3,628.7c-8.9-3.9-17.7-8.3-26.1-13.2c-1.6-0.9-3.4-1.4-5.1-1.4c-3.5,0-6.9,1.8-8.8,5.1
	c-2.8,4.9-1.2,11,3.7,13.9c9.1,5.3,18.5,10,28.2,14.2c5.1,2.3,11.1-0.1,13.3-5.3C212.8,636.9,210.4,631,205.3,628.7z M108.1,585.1
	c7.2,7.6,15,14.8,23,21.5c4.3,3.6,10.7,3,14.3-1.3s3-10.7-1.3-14.3c-7.5-6.2-14.6-12.9-21.3-20c-2-2.1-4.7-3.1-7.3-3.1
	c-2.5,0-5,0.9-7,2.8C104.4,574.6,104.3,581,108.1,585.1z M78.6,262.6c4.7,3,11,1.7,14-3.1c5.3-8.2,11-16.2,17.2-23.7
	c3.5-4.3,2.9-10.7-1.4-14.3c-1.9-1.5-4.1-2.3-6.4-2.3c-2.9,0-5.8,1.3-7.9,3.7c-6.6,8.1-12.8,16.7-18.5,25.5
	C72.5,253.3,73.9,259.6,78.6,262.6z M139.5,205.1c7.3-6.4,15.1-12.4,23.1-17.9c4.6-3.2,5.8-9.5,2.6-14.1c-2-2.9-5.1-4.4-8.4-4.4
	c-2,0-4,0.6-5.7,1.8c-8.6,5.9-17,12.4-24.9,19.3c-4.2,3.7-4.7,10.1-1,14.3C128.9,208.3,135.3,208.8,139.5,205.1z M32.5,402.6
	c0.1,5.6,5,10.2,10.4,9.9c5.6-0.1,10-4.8,9.9-10.4c0-2-0.1-4-0.1-6.1c0-9.8,0.6-19.6,1.7-29.2c0.6-5.6-3.3-10.6-8.9-11.2
	c-0.4,0-0.8-0.1-1.2-0.1c-5.1,0-9.5,3.8-10.1,9c-1.2,10.4-1.8,21-1.8,31.5C32.4,398.3,32.5,400.5,32.5,402.6z M50.3,331.8
	c5.4,1.6,11-1.5,12.6-6.9c2.7-9.3,6-18.6,9.8-27.5c2.2-5.2-0.2-11.1-5.4-13.3c-1.3-0.5-2.6-0.8-3.9-0.8c-3.9,0-7.7,2.3-9.3,6.2
	c-4.1,9.7-7.7,19.7-10.6,29.8C41.8,324.6,44.9,330.3,50.3,331.8z M199.8,165.9c8.8-4.1,17.9-7.7,27.2-10.7c5.3-1.7,8.2-7.5,6.5-12.8
	c-1.4-4.3-5.4-7-9.6-7c-1,0-2.1,0.2-3.2,0.5c-10,3.3-19.8,7.2-29.4,11.6c-5.1,2.3-7.3,8.4-4.9,13.5
	C188.7,166.1,194.7,168.3,199.8,165.9z M409.6,164.7c8.8,4,17.6,8.5,25.9,13.5c4.8,2.9,11,1.3,13.9-3.5s1.3-11-3.5-13.9
	c-9-5.4-18.4-10.3-28-14.6c-1.3-0.6-2.8-0.9-4.1-0.9c-3.9,0-7.6,2.2-9.3,6C402.2,156.4,404.5,162.4,409.6,164.7z M491.4,223.3
	c3.8,4.1,10.2,4.3,14.3,0.5s4.3-10.2,0.5-14.3c-7.2-7.7-14.8-15-22.8-21.8c-1.9-1.6-4.2-2.4-6.6-2.4c-2.9,0-5.7,1.2-7.7,3.6
	c-3.6,4.3-3.1,10.7,1.1,14.3C477.7,209.4,484.8,216.2,491.4,223.3z M532.5,282.3c2.5,5,8.6,7,13.6,4.5s7-8.6,4.5-13.6
	c-4.7-9.4-10-18.6-15.8-27.3c-1.9-3-5.2-4.6-8.5-4.6c-1.9,0-3.8,0.5-5.6,1.7c-4.7,3.1-6,9.4-2.9,14.1
	C523.2,265.1,528.1,273.6,532.5,282.3z M340.5,145c9.7,1.3,19.3,3.2,28.7,5.6c5.4,1.4,10.9-1.9,12.3-7.3c1.4-5.4-1.9-11-7.3-12.3
	c-10.1-2.6-20.5-4.6-31-6.1c-0.5-0.1-0.9-0.1-1.4-0.1c-5,0-9.3,3.7-10,8.8C331.1,139.1,335,144.2,340.5,145z M268.6,145.4
	c9.6-1.4,19.4-2.3,29.1-2.6c5.6-0.2,10-4.9,9.8-10.5c-0.2-5.5-4.7-9.9-10.1-9.9c-0.1,0-0.2,0-0.3,0c-10.5,0-21,1.4-31.4,2.9
	c-5.5,0.8-9.4,6-8.5,11.6C257.9,142.4,263,146.1,268.6,145.4z M474.9,405.5H143.1c-6.5,0-11.8-5.3-11.8-11.8s5.3-11.8,11.8-11.8
	h331.8c6.5,0,11.8,5.3,11.8,11.8S481.4,405.5,474.9,405.5z M297.1,583.2c-6.5,0-11.8-5.3-11.8-11.8V239.6c0-6.5,5.3-11.8,11.8-11.8
	s11.8,5.3,11.8,11.8v331.7C309,577.9,303.7,583.2,297.1,583.2z"/>
</svg>
