<?xml version="1.0" encoding="utf-8"?>
<!-- Generator: Adobe Illustrator 18.1.1, SVG Export Plug-In . SVG Version: 6.00 Build 0)  -->
<svg version="1.1" id="Layer_1" xmlns="http://www.w3.org/2000/svg" xmlns:xlink="http://www.w3.org/1999/xlink" x="0px" y="0px"
	 viewBox="0 0 612 792" enable-background="new 0 0 612 792" xml:space="preserve">
<path fill="#231F20" d="M612,702H0V90h612V702z M250.5,358.9h335.1l0,0c6.4,0,11.6-5.2,11.6-11.6c0-4.2-2.2-7.8-5.5-9.9L421.1,238
	c-4-2.7-9.2-2.7-13.2,0l-164.1,99.7c-4.2,2.9-6,8.1-4.5,13C240.9,355.6,245.4,358.9,250.5,358.9z M275.1,391.8v137.5
	c0,10.2,8.3,18.5,18.5,18.5s18.5-8.3,18.5-18.5V391.8c0-10.2-8.3-18.5-18.5-18.5S275.1,381.6,275.1,391.8z M524.1,391.8v137.5
	c0,10.2,8.3,18.5,18.5,18.5s18.5-8.3,18.5-18.5V391.8c0-10.2-8.3-18.5-18.5-18.5C532.3,373.3,524.1,381.6,524.1,391.8z M399.6,391.8
	v137.5c0,10.2,8.3,18.5,18.5,18.5s18.5-8.3,18.5-18.5V391.8c0-10.2-8.3-18.5-18.5-18.5S399.6,381.6,399.6,391.8z M337.4,391.8v137.5
	c0,10.2,8.3,18.5,18.5,18.5s18.5-8.3,18.5-18.5V391.8c0-10.2-8.3-18.5-18.5-18.5C345.6,373.3,337.4,381.6,337.4,391.8z M461.8,391.8
	v137.5c0,10.2,8.3,18.5,18.5,18.5s18.5-8.3,18.5-18.5V391.8c0-10.2-8.3-18.5-18.5-18.5C470.1,373.3,461.8,381.6,461.8,391.8z
	 M242.2,595.6h350.4c9.2,0,17.9-6.3,19.2-15.4c1.6-11.1-7-20.6-17.8-20.6H243.1c-9,0-17.3,6.1-18.7,15
	C222.5,585.8,231.2,595.6,242.2,595.6z M579.9,702c6.2,0,11.3-79.6,11.3-86s-5-11.6-11.3-11.6H258.3c-6.2,0-11.3,5.2-11.3,11.6
	c0,6.4,5,86,11.3,86H579.9z"/>
<g>
	<path fill="#282828" d="M607,95v602H5V95H607 M612,90H0v612h612V90L612,90z"/>
</g>
</svg>
