<?xml version="1.0" encoding="utf-8"?>
<!-- Generator: Adobe Illustrator 18.0.0, SVG Export Plug-In . SVG Version: 6.00 Build 0)  -->
<!DOCTYPE svg PUBLIC "-//W3C//DTD SVG 1.1//EN" "http://www.w3.org/Graphics/SVG/1.1/DTD/svg11.dtd">
<svg version="1.1" id="Layer_1" xmlns="http://www.w3.org/2000/svg" xmlns:xlink="http://www.w3.org/1999/xlink" x="0px" y="0px"
	 viewBox="0 0 512 512" enable-background="new 0 0 512 512" xml:space="preserve">
<g id="oFy5WB_4_">
	<g>
		<g>
			<path fill="#231F20" d="M100.7,116.5c0-8.8-0.3-16,0.1-23.2c1.1-23.9,15.9-38.9,39.8-38.9c91.6-0.2,183.2-0.2,274.8,0
				c24.8,0.1,39.8,15.2,39.8,40.2c0.2,104.6,0.3,209.3,0,313.9c-0.1,29.1-21.2,50.7-50.2,50.8c-101.5,0.4-203,0.4-304.5,0
				c-28.9-0.1-50.1-22-50.2-50.9c-0.3-83.3-0.2-166.6-0.1-249.9c0-24.4,13.5-38.5,37.8-40.9C91.6,117.2,95.2,117,100.7,116.5z
				 M100.7,143.7c-21.4-3.3-26.3,0.7-26.3,20.3c0,78.6,0,157.2,0,235.7c0,27.1,8.3,35.4,35.3,35.4c95.2,0,190.5,0,285.7,0
				c27.2,0,35.6-8.3,35.6-35.1c0-99.4,0-198.8,0-298.2c0-20.8-2.5-23.3-23.3-23.3c-85.3,0-170.7,0-256,0c-24.8,0-26.8,2-26.8,26.5
				c0,94.7,0,189.4,0,284.1c0,8.6,0.6,18.4-10.8,18.9c-11.6,0.4-13.6-8.6-13.4-18.5c0.3-22.9,0.1-45.8,0.1-68.7
				C100.7,262,100.7,203.2,100.7,143.7z"/>
			<path fill="#231F20" d="M264.9,162.5c0,13-0.2,26,0.1,39.1c0.3,11.1-4.9,16.6-15.8,16.7c-27.1,0.1-54.2,0.1-81.2,0
				c-10.9,0-16.1-5.2-16.1-16.3c0.2-27.1,0.2-54.2,0-81.2c-0.1-11.4,5.8-15.9,16.4-15.9c26.6,0,53.1,0,79.7,0
				c11.5,0,17.3,5.1,17,17.1C264.7,135.4,265,149,264.9,162.5z M239.4,193.2c0-21.9,0-42.4,0-64.2c-18.8,0-36.4-0.4-54,0.3
				c-3.2,0.1-8.8,4.6-9,7.3c-0.8,18.6-0.4,37.2-0.4,56.6C198,193.2,218,193.2,239.4,193.2z"/>
		</g>
	</g>
</g>
<path fill="#231F20" d="M396.8,130.7H295.3c-5,0-9-4-9-9v-3.5c0-5,4-9,9-9h101.5c5,0,9,4,9,9v3.5
	C405.8,126.7,401.8,130.7,396.8,130.7z"/>
<path fill="#231F20" d="M396.8,266.8H158.5c-5,0-9-4-9-9v-3.5c0-5,4-9,9-9h238.3c5,0,9,4,9,9v3.5
	C405.8,262.8,401.8,266.8,396.8,266.8z"/>
<path fill="#231F20" d="M396.8,313.3H158.5c-5,0-9-4-9-9v-3.5c0-5,4-9,9-9h238.3c5,0,9,4,9,9v3.5
	C405.8,309.3,401.8,313.3,396.8,313.3z"/>
<path fill="#231F20" d="M396.8,359.8H158.5c-5,0-9-4-9-9v-3.5c0-5,4-9,9-9h238.3c5,0,9,4,9,9v3.5
	C405.8,355.8,401.8,359.8,396.8,359.8z"/>
<path fill="#231F20" d="M396.8,406.3H158.5c-5,0-9-4-9-9v-3.5c0-5,4-9,9-9h238.3c5,0,9,4,9,9v3.5
	C405.8,402.2,401.8,406.3,396.8,406.3z"/>
<path fill="#231F20" d="M396.8,175.2H295.3c-5,0-9-4-9-9v-3.5c0-5,4-9,9-9h101.5c5,0,9,4,9,9v3.5
	C405.8,171.2,401.8,175.2,396.8,175.2z"/>
<path fill="#231F20" d="M396.8,219.7H295.3c-5,0-9-4-9-9v-3.5c0-5,4-9,9-9h101.5c5,0,9,4,9,9v3.5
	C405.8,215.7,401.8,219.7,396.8,219.7z"/>
</svg>
