<?xml version="1.0" encoding="utf-8"?>
<!-- Generator: Adobe Illustrator 18.1.1, SVG Export Plug-In . SVG Version: 6.00 Build 0)  -->
<!DOCTYPE svg PUBLIC "-//W3C//DTD SVG 1.1//EN" "http://www.w3.org/Graphics/SVG/1.1/DTD/svg11.dtd">
<svg version="1.1" id="Layer_1" xmlns="http://www.w3.org/2000/svg" xmlns:xlink="http://www.w3.org/1999/xlink" x="0px" y="0px"
	 viewBox="130 -184 512 512" enable-background="new 130 -184 512 512" xml:space="preserve">
<path fill="#231F20" d="M608.6,72.5c0-122.4-99.6-222.1-222.1-222.1S164.4-49.9,164.4,72.5s99.6,222.1,222.1,222.1
	S608.6,194.9,608.6,72.5z M591.9,64.3h-86.7c-0.6-31.5-4.5-61.2-11.2-87.8c30.2-10.3,48.6-22.5,56.2-28.2
	C574.9-19.2,590.2,20.8,591.9,64.3z M222.8-51.7c7.5,5.7,26,17.9,56.2,28.2c-6.7,26.6-10.6,56.3-11.2,87.8h-86.7
	C182.8,20.8,198.1-19.2,222.8-51.7z M181.1,80.7h86.7c0.6,31.2,4.4,60.6,11,87.1c-30.5,10.4-49.1,22.9-56.4,28.4
	C197.9,163.8,182.8,124,181.1,80.7z M394.7,80.7h94c-0.6,29.2-4.4,57-10.7,82.1c-22.5-6.2-50.2-10.8-83.3-11.5V80.7z M473.6,178.7
	c-16.8,54.6-45.9,93.1-78.9,98.6V167.8C426.1,168.5,452.4,172.9,473.6,178.7z M299.4,178.8c21.3-5.9,47.5-10.3,78.9-11v109.6
	C345.3,271.8,316.2,233.3,299.4,178.8z M294.9,162.8c-6.3-25.1-10.1-52.9-10.7-82.1h94v70.6C345.2,152,317.4,156.6,294.9,162.8z
	 M295.1-18.6c22.5,6.2,50.1,10.7,83.1,11.4v71.4h-94C284.8,34.8,288.7,6.7,295.1-18.6z M299.6-34.5c16.9-54.2,45.9-92.3,78.7-97.9
	v108.7C347-24.3,320.8-28.7,299.6-34.5z M473.4-34.6c-21.2,5.9-47.4,10.3-78.6,10.9v-108.7C427.5-126.8,456.5-88.7,473.4-34.6z
	 M477.9-18.6c6.4,25.3,10.3,53.4,10.9,82.8h-94V-7.2C427.7-7.8,455.4-12.4,477.9-18.6z M591.9,80.7c-1.7,43.2-16.8,83.1-41.3,115.5
	c-7.3-5.6-25.9-18-56.4-28.4c6.6-26.4,10.4-55.8,11-87.1H591.9z M440.8,270.8c20.6-19.4,37.6-49.7,49-87c27.3,9.5,44,20.4,50.4,25.2
	C514.1,238.3,479.7,260.1,440.8,270.8z M232.9,209c6.4-4.7,23.1-15.7,50.4-25.1c11.4,37.4,28.4,67.6,49,87
	C293.3,260.1,259,238.3,232.9,209z M332.2-125.8c-20.5,19.3-37.4,49.3-48.8,86.3c-26.9-9.3-43.5-20-50.1-24.9
	C259.3-93.5,293.5-115.2,332.2-125.8z M539.7-64.5c-6.7,4.9-23.3,15.6-50.2,24.9c-11.4-37-28.3-67-48.8-86.2
	C479.5-115.2,513.7-93.6,539.7-64.5z"/>
</svg>
