<?xml version="1.0" encoding="utf-8"?>
<!-- Generator: Adobe Illustrator 18.1.1, SVG Export Plug-In . SVG Version: 6.00 Build 0)  -->
<svg version="1.1" id="Layer_1" xmlns="http://www.w3.org/2000/svg" xmlns:xlink="http://www.w3.org/1999/xlink" x="0px" y="0px"
	 viewBox="0 0 612 792" enable-background="new 0 0 612 792" xml:space="preserve">
<path fill="#231F20" d="M571.5,396c0-146.3-119.1-265.5-265.5-265.5S40.5,249.7,40.5,396S159.6,661.5,306,661.5
	S571.5,542.3,571.5,396z M551.5,386.2H447.9c-0.7-37.7-5.4-73.2-13.4-104.9c36.1-12.3,58.1-26.9,67.2-33.7
	C531.2,286.4,549.5,334.2,551.5,386.2z M110.3,247.5c9,6.8,31.1,21.4,67.2,33.7c-8,31.8-12.7,67.3-13.4,104.9H60.5
	C62.5,334.2,80.8,286.4,110.3,247.5z M60.5,405.8h103.6c0.7,37.3,5.3,72.4,13.1,104.1c-36.5,12.4-58.7,27.4-67.4,33.9
	C80.6,505.1,62.5,457.6,60.5,405.8z M315.8,405.8h112.4c-0.7,34.9-5.3,68.1-12.8,98.1c-26.9-7.4-60-12.9-99.6-13.7V405.8z
	 M410.1,522.9c-20.1,65.3-54.9,111.3-94.3,117.9V509.9C353.3,510.8,384.8,516,410.1,522.9z M201.9,523.1
	c25.5-7.1,56.8-12.3,94.3-13.1v131C256.8,634.2,222,588.2,201.9,523.1z M196.5,503.9c-7.5-30-12.1-63.2-12.8-98.1h112.4v84.4
	C256.6,491,223.4,496.5,196.5,503.9z M196.7,287.1c26.9,7.4,59.9,12.8,99.3,13.6v85.3H183.7C184.4,350.9,189.1,317.3,196.7,287.1z
	 M202.1,268.1c20.2-64.8,54.9-110.3,94.1-117V281C258.8,280.3,227.5,275,202.1,268.1z M409.9,268c-25.3,7.1-56.7,12.3-94,13V151.1
	C355,157.8,389.7,203.3,409.9,268z M415.3,287.1c7.6,30.2,12.3,63.8,13,99H315.9v-85.3C355.2,300,388.4,294.5,415.3,287.1z
	 M551.5,405.8c-2,51.6-20.1,99.3-49.4,138.1c-8.7-6.7-31-21.5-67.4-33.9c7.9-31.6,12.4-66.7,13.1-104.1
	C447.9,405.8,551.5,405.8,551.5,405.8z M370.9,633c24.6-23.2,44.9-59.4,58.6-104c32.6,11.4,52.6,24.4,60.2,30.1
	C458.5,594.2,417.4,620.2,370.9,633z M122.4,559.2c7.6-5.6,27.6-18.8,60.2-30c13.6,44.7,33.9,80.8,58.6,104
	C194.6,620.2,153.6,594.2,122.4,559.2z M241.1,159c-24.5,23.1-44.7,58.9-58.3,103.2c-32.2-11.1-52-23.9-59.9-29.8
	C154,197.6,194.8,171.6,241.1,159z M489.1,232.2c-8,5.9-27.9,18.6-60,29.8c-13.6-44.2-33.8-80.1-58.3-103
	C417.2,171.6,458,197.5,489.1,232.2z"/>
</svg>
