<?xml version="1.0" encoding="utf-8"?>
<!-- Generator: Adobe Illustrator 18.1.1, SVG Export Plug-In . SVG Version: 6.00 Build 0)  -->
<svg version="1.1" id="Layer_1" xmlns="http://www.w3.org/2000/svg" xmlns:xlink="http://www.w3.org/1999/xlink" x="0px" y="0px"
	 viewBox="0 0 612 792" enable-background="new 0 0 612 792" xml:space="preserve">
<g>
	<path fill="#282828" d="M367.8,402h9.2l50.8-58.5H386l-32.3,35.1C361.3,384.7,366.5,392.8,367.8,402z"/>
	<polygon fill="#282828" points="287.9,701.5 424.2,701.5 399.8,700.2 	"/>
	<polygon fill="#282828" points="612,89.5 0,89.5 0,701.5 172.1,701.5 280.7,641.2 280.7,513.2 210.6,432.5 96.2,301.4 141,301.4 
		306.7,301.4 396.5,301.4 460.7,223.6 478,243.6 424.8,301.4 472.2,301.4 517.1,301.4 402.7,432.5 334,511.5 334,641 439.9,701.5 
		612,701.5 	"/>
	<path fill="#282828" d="M361.7,343.6h-55.1H185.4l50.9,58.5h41.6c2.8-19,21.9-33.7,45-33.7c5.7,0,11.2,0.9,16.3,2.6L361.7,343.6z"
		/>
	<polygon fill="#282828" points="441.6,702.5 439.9,701.5 424.2,701.5 	"/>
	<polygon fill="#282828" points="170.7,702.3 207.8,702.5 287.9,701.5 172.1,701.5 	"/>
</g>
<g>
	<path fill="#282828" d="M607,95v602H5V95H607 M612,90H0v612h612V90L612,90z"/>
</g>
</svg>
