<?xml version="1.0" encoding="utf-8"?>
<!-- Generator: Adobe Illustrator 18.1.1, SVG Export Plug-In . SVG Version: 6.00 Build 0)  -->
<svg version="1.1" id="Layer_1" xmlns="http://www.w3.org/2000/svg" xmlns:xlink="http://www.w3.org/1999/xlink" x="0px" y="0px"
	 viewBox="0 0 612 792" enable-background="new 0 0 612 792" xml:space="preserve">
<g>
	<path d="M465.1,587h-327c-60.2,0-109.2-49-109.2-109.2c0-50.1,34-93.4,81.9-105.6c3-47.5,42.6-85.3,90.8-85.3
		c9,0,17.9,1.3,26.4,3.9c19.1-50.9,68.5-85.7,123.4-85.7c68.8,0,126.3,54.1,131.4,122c58.6,14.3,100.4,67,100.4,128
		c0,64.5-46,120.1-108.7,131l-0.3,0.1L465.1,587z M201.6,305.4c-40,0-72.5,32.5-72.5,72.5l0.3,9.4l-7.8,1.4
		c-43,7.9-74.3,45.4-74.3,89.1c0,50,40.7,90.7,90.7,90.7h319.3l6.6-0.3c57.4-6.4,100.9-55.2,100.9-113.1
		c0-54.5-38.9-101.4-92.5-111.4l-7.4-1.4l-0.1-7.5c-1.2-61.3-52-111.2-113.3-111.2c-50.1,0-94.8,33.6-108.8,81.7l-2.9,10l-9.6-4.1
		C221.1,307.4,211.5,305.4,201.6,305.4z"/>
</g>
</svg>
