<?xml version="1.0" encoding="utf-8"?>
<!-- Generator: Adobe Illustrator 18.1.1, SVG Export Plug-In . SVG Version: 6.00 Build 0)  -->
<svg version="1.1" id="Layer_1" xmlns="http://www.w3.org/2000/svg" xmlns:xlink="http://www.w3.org/1999/xlink" x="0px" y="0px"
	 viewBox="0 0 612 792" enable-background="new 0 0 612 792" xml:space="preserve">
<g>
	<path fill="#282828" d="M607,95v602H5V95H607 M612,90H0v612h612V90L612,90z"/>
</g>
<g>
	<path fill="#282828" d="M431.7,346l2.6-75.6l-75.6,2.5l-51.7-55.3L255.2,273l-75.6-2.5l2.6,75.6l-55.3,51.7l55.3,51.7l-2.6,75.6
		l75.6-2.6l51.7,55.3l51.7-55.3l75.6,2.6l-2.6-75.6l55.3-51.7L431.7,346z M306.9,519.4c-67.1,0-121.7-54.6-121.7-121.7
		c0-67.1,54.6-121.7,121.7-121.7s121.7,54.6,121.7,121.7C428.6,464.8,374,519.4,306.9,519.4z"/>
	<path fill="#282828" d="M0,90v612h612V90H0z M463,553.8l-92.7-3.1l-63.4,67.8l-63.4-67.8l-92.7,3.1l3.1-92.7l-67.8-63.4l67.8-63.4
		l-3.1-92.7l92.7,3.1l63.4-67.8l63.4,67.8l92.7-3.1l-3.1,92.7l67.8,63.4l-67.8,63.4L463,553.8z"/>
	<path fill="#282828" d="M306.9,303.8c-51.8,0-93.9,42.1-93.9,93.9s42.1,93.9,93.9,93.9c51.8,0,93.9-42.1,93.9-93.9
		S358.7,303.8,306.9,303.8z"/>
</g>
</svg>
