<?xml version="1.0" encoding="utf-8"?>
<!-- Generator: Adobe Illustrator 18.1.1, SVG Export Plug-In . SVG Version: 6.00 Build 0)  -->
<!DOCTYPE svg PUBLIC "-//W3C//DTD SVG 1.1//EN" "http://www.w3.org/Graphics/SVG/1.1/DTD/svg11.dtd">
<svg version="1.1" id="Layer_1" xmlns="http://www.w3.org/2000/svg" xmlns:xlink="http://www.w3.org/1999/xlink" x="0px" y="0px"
	 viewBox="130 -184 512 512" enable-background="new 130 -184 512 512" xml:space="preserve">
<path fill="#231F20" d="M537.6,278.2H234.4c-18.8,0-34.1-15.3-34.1-34.1c0-1,1-14.6,6.5-35.9c6.5-25.3,62-44.5,115.3-60.1l7.1-2.1
	c4.6-1.4,9.8-15.6,10.9-36.6c-5.5-4.5-10.5-10.5-15.4-18.6c-1.4-2.3-2.8-4.5-4.2-6.7c-4.9-7.7-9.5-15-13.6-25.1
	c-4.5-1.7-8.6-5.2-11.1-9.8c-8.7-16-13.8-41.6-10.2-51.7c1.5-4.4,4.9-7.5,9.5-9c0-37.7,12.5-61.5,25.6-76.1c-0.3-1.3-0.1-2.7,0.3-4
	c3.5-12.5,15.6-18.3,27.8-19.9c0.2-2.3,0.8-4.6,1.8-7.1c2.2-5.5,7.9-14.2,14.3-15.5c1.9-0.4,3.8,0,5.4,1.1c1.6,1.1,2.7,2.8,3,4.7
	c0.5,1,4.5,4.3,11.3,6.2c16.3,4.5,28.2,9.2,35.4,12.4c35.9,14.2,57,50.8,57,98.5c4.1,1.6,7.1,4.5,8.5,8.6
	c3.6,10.1-1.5,35.8-10.2,51.8c-2.3,4.3-6.1,7.7-10.2,9.5c-4.2,10.3-9.1,17.9-13.8,25.3c-1.5,2.3-2.9,4.6-4.4,7.1
	c-4.6,7.6-9.1,13.2-13.8,17.5c0.6,19.4,4.9,35.3,10.4,37.6c9.7,3.9,22,7.7,34.9,11.7c39.3,12.1,80,24.6,86.5,50.2
	c5.5,21.7,6.7,28.1,6.7,35.9C571.7,262.9,556.4,278.2,537.6,278.2z M302.1,1.3c-2.1,0-3,0.6-3.1,0.7c-1.6,4.7,1.5,26,9.3,40.3
	c1.2,2.2,3.3,3.4,4.1,3.5c2.9,0.1,5.5,2,6.5,4.7c3.8,10.7,8.4,17.8,13.6,26c1.4,2.3,2.9,4.6,4.4,7c4.8,7.8,9.4,13.2,14.6,16.7
	c2,1.4,3.1,3.6,3.1,6c-0.4,14.3-3.2,48.1-21.1,53.4l-7.2,2.1c-66.5,19.3-102,36.1-105.6,50c-5.1,19.9-6,32.7-6,32.8
	c0,10.5,8.9,19.4,19.9,19.4h303.2c10.9,0,19.9-8.9,19.9-19.9c0-5.9-0.8-10.9-6.3-32.4c-4.6-17.9-44.7-30.3-76.9-40.2
	c-13.3-4.1-25.8-8-36.1-12.1c-16.6-6.7-19.2-36.7-19.4-53.9c0-2.2,1-4.3,2.8-5.7c4.3-3.3,8.6-8.6,13.2-16c1.5-2.5,3.1-4.9,4.6-7.3
	c5-7.9,9.8-15.3,13.7-25.9c0.9-2.5,3.1-4.2,5.7-4.6c0.8-0.1,2.9-1.4,4.1-3.5c7.8-14.3,11-35.5,9.3-40.3c-0.1-0.1-0.9-0.4-2.5-0.5
	c-1.9,0-3.7-0.8-5-2.2c-1.3-1.4-2-3.2-1.9-5.1c1.7-45-15.9-78.2-48.2-91c-7-3.1-18.2-7.5-33.7-11.8c-5.2-1.5-11.2-4.1-15.5-7.9
	c-1,1.6-1.9,3.5-2.2,5.3c-0.3,1.3-0.1,2,0,2.1c1.6,2.4,1.7,5.5,0.1,7.9c-1.4,2.2-3.8,3.4-6.4,3.2l-0.7,0c-1.4,0-11.2,0.2-17.2,4.4
	c0.2,0.3,0.3,0.6,0.5,0.9c1.3,2.9,0.6,6.2-1.8,8.3C323.8-72.3,307.8-49,309.4-5.6c0.1,2-0.7,3.6-2.1,5C306,0.8,304,1.3,302.1,1.3
	C302.1,1.3,302.1,1.3,302.1,1.3z"/>
</svg>
