<?xml version="1.0" encoding="utf-8"?>
<!-- Generator: Adobe Illustrator 18.1.1, SVG Export Plug-In . SVG Version: 6.00 Build 0)  -->
<svg version="1.1" id="Layer_1" xmlns="http://www.w3.org/2000/svg" xmlns:xlink="http://www.w3.org/1999/xlink" x="0px" y="0px"
	 viewBox="0 0 612 792" enable-background="new 0 0 612 792" xml:space="preserve">
<path fill="#231F20" d="M487.3,642.5H124.9c-22.5,0-40.8-18.3-40.8-40.8c0-1.2,1.2-17.5,7.8-42.9c7.8-30.2,74.1-53.2,137.8-71.8
	l8.5-2.5c5.5-1.7,11.7-18.6,13-43.7c-6.6-5.4-12.6-12.6-18.4-22.2c-1.7-2.7-3.3-5.4-5-8c-5.9-9.2-11.4-17.9-16.3-30
	c-5.4-2-10.3-6.2-13.3-11.7c-10.4-19.1-16.5-49.7-12.2-61.8c1.8-5.3,5.9-9,11.4-10.8c0-45.1,14.9-73.5,30.6-91
	c-0.4-1.6-0.1-3.2,0.4-4.8c4.2-14.9,18.6-21.9,33.2-23.8c0.2-2.7,1-5.5,2.2-8.5c2.6-6.6,9.4-17,17.1-18.5c2.3-0.5,4.5,0,6.5,1.3
	s3.2,3.3,3.6,5.6c0.6,1.2,5.4,5.1,13.5,7.4c19.5,5.4,33.7,11,42.3,14.8c42.9,17,68.1,60.7,68.1,117.7c4.9,1.9,8.5,5.4,10.2,10.3
	c4.3,12.1-1.8,42.8-12.2,61.9c-2.7,5.1-7.3,9.2-12.2,11.4c-5,12.3-10.9,21.4-16.5,30.2c-1.8,2.7-3.5,5.5-5.3,8.5
	c-5.5,9.1-10.9,15.8-16.5,20.9c0.7,23.2,5.9,42.2,12.4,44.9c11.6,4.7,26.3,9.2,41.7,14c47,14.5,95.6,29.4,103.4,60
	c6.6,25.9,8,33.6,8,42.9C528,624.2,509.7,642.5,487.3,642.5z M205.8,311.5c-2.5,0-3.6,0.7-3.7,0.8c-1.9,5.6,1.8,31.1,11.1,48.2
	c1.4,2.6,3.9,4.1,4.9,4.2c3.5,0.1,6.6,2.4,7.8,5.6c4.5,12.8,10,21.3,16.3,31.1c1.7,2.7,3.5,5.5,5.3,8.4c5.7,9.3,11.2,15.8,17.5,20
	c2.4,1.7,3.7,4.3,3.7,7.2c-0.5,17.1-3.8,57.5-25.2,63.8l-8.6,2.5c-79.5,23.1-121.9,43.2-126.2,59.8c-6.1,23.8-7.2,39.1-7.2,39.2
	c0,12.6,10.6,23.2,23.8,23.2h362.4c13,0,23.8-10.6,23.8-23.8c0-7.1-1-13-7.5-38.7c-5.5-21.4-53.4-36.2-91.9-48.1
	c-15.9-4.9-30.8-9.6-43.2-14.5c-19.8-8-23-43.9-23.2-64.4c0-2.6,1.2-5.1,3.3-6.8c5.1-3.9,10.3-10.3,15.8-19.1c1.8-3,3.7-5.9,5.5-8.7
	c6-9.4,11.7-18.3,16.4-31c1.1-3,3.7-5,6.8-5.5c1-0.1,3.5-1.7,4.9-4.2c9.3-17.1,13.1-42.4,11.1-48.2c-0.1-0.1-1.1-0.5-3-0.6
	c-2.3,0-4.4-1-6-2.6c-1.6-1.7-2.4-3.8-2.3-6.1c2-53.8-19-93.5-57.6-108.8c-8.4-3.7-21.8-9-40.3-14.1c-6.2-1.8-13.4-4.9-18.5-9.4
	c-1.2,1.9-2.3,4.2-2.6,6.3c-0.4,1.6-0.1,2.4,0,2.5c1.9,2.9,2,6.6,0.1,9.4c-1.7,2.6-4.5,4.1-7.6,3.8h-0.8c-1.7,0-13.4,0.2-20.6,5.3
	c0.2,0.4,0.4,0.7,0.6,1.1c1.6,3.5,0.7,7.4-2.2,9.9c-16.9,14.3-36,42.2-34.1,94.1c0.1,2.4-0.8,4.3-2.5,6
	C210.4,310.9,208,311.5,205.8,311.5L205.8,311.5z"/>
</svg>
