<?xml version="1.0" encoding="utf-8"?>
<!-- Generator: Adobe Illustrator 18.0.0, SVG Export Plug-In . SVG Version: 6.00 Build 0)  -->
<!DOCTYPE svg PUBLIC "-//W3C//DTD SVG 1.1//EN" "http://www.w3.org/Graphics/SVG/1.1/DTD/svg11.dtd">
<svg version="1.1" id="Layer_1" xmlns="http://www.w3.org/2000/svg" xmlns:xlink="http://www.w3.org/1999/xlink" x="0px" y="0px"
	 viewBox="0 0 512 512" enable-background="new 0 0 512 512" xml:space="preserve">
<g id="lO7G9s_3_">
	<g>
		<g>
			<path fill="#231F20" d="M18.4,512.7c1.3-7.6,5-12.9,7.4-19.8c2.9-8.5,4.4-16.5,8.9-24.4c8.3-14.8,20.7-26.4,34-35.2
				c21-13.8,44.6-21.7,66.4-33.7c1.3-0.7,2.7-1.5,3.7-2.8c1.3-1.7,1.7-4,2.4-6.1c3.3-10,13.3-15,22.7-16c7.1-0.8,21.5,3.5,27.6-0.8
				c5.8-4.1,3.1-17.4,3.2-24.3c0-1.9-0.5-3.2-1.6-4.5c-9.2-10.9-15.2-23.6-17-38.6c-0.6-5-1.1-10.1-2-15.1c-0.7-4.1-1.2-4.3-4.8-4.2
				c-3.3,0.1-5.9-1.3-7.9-4c-1.4-2-2.7-4.2-3.7-6.5c-4.3-10.5-6.1-21.6-5.3-33.1c0.5-6.5,1.7-12.9,2.5-19.4c0.2-1.8,0.4-4-0.2-5.6
				c-4.8-12.3-6.1-24.8-3.1-38c0.9-3.7,0.6-8,0-11.9c-1-7-2.7-13.8-3.8-20.8c-0.5-3.4,0-6.9-0.3-10.3c-0.4-5-0.5-9.9,1.6-14.4
				c4-8.8,7.8-17.8,12.3-26.2c4-7.5,9.2-14.1,15.8-19.1c15.1-11.3,31.6-19,49.2-23.6c14.7-3.9,29.7-4,44.7-3.3
				c11.4,0.6,22.6,2.2,33.5,6.2c18.8,6.9,31.9,20,35.9,42.7c0.1,0.8,0.9,2,1.6,2.2c9.7,3.2,15.9,10.9,20.3,20.7
				c6.3,13.8,7.3,28.7,5.8,43.6c-1.3,13.2-3.9,26.3-6.3,39.4c-2.2,12.4-4.7,24.6-4.3,37.4c0.1,3-0.2,6-0.8,8.9
				c-1.6,7.3-3.5,14.4-5.1,21.7c-2.2,9.7-7,15.9-16.4,16.6c-0.6,0-1.6,1.3-1.7,2.1c-0.5,3-0.7,6.1-1.1,9.1
				c-2.2,13.3-5.2,26.4-13,36.8c-4.2,5.6-5.4,11.2-5,18c0.6,0-0.3,11.6,0.1,12.5c1.5,3,0.7,1.9,3.4,3.3c4.7,2.5,15.1,0.9,20.5,1.3
				c2.1,0.2,4.3,0.4,6.2,1.4c5.1,2.8,6.4,10.4,10.5,14.8c5.8,6.3,15.2,4.3,23.1,6.3c3.6,0.9,7,2.6,10.3,4.4
				c14.4,7.5,29.1,15.2,41,27.1c6.6,6.6,12.2,14.5,18.4,21.7c9.4,11,22.8,19.2,31.3,30.8c2.3,3.1,14.5,33.3,14,33.3
				c-3.2,0-6.4,0-9.6,0c-33.7,0-67.3,0-101-0.1c-52.2,0-104.4-0.1-156.6-0.1c-48.1,0-96.1-0.1-144.2-0.1
				C61,512.7,39.3,511.5,18.4,512.7z"/>
		</g>
	</g>
</g>
</svg>
