<?xml version="1.0" encoding="utf-8"?>
<!-- Generator: Adobe Illustrator 18.1.1, SVG Export Plug-In . SVG Version: 6.00 Build 0)  -->
<svg version="1.1" id="Layer_1" xmlns="http://www.w3.org/2000/svg" xmlns:xlink="http://www.w3.org/1999/xlink" x="0px" y="0px"
	 viewBox="0 0 612 792" enable-background="new 0 0 612 792" xml:space="preserve">
<g>
	<path fill="#231F20" d="M245.4,307.4v400.8c18.3,0.8,38.5,1.3,60.6,1.3c22.1,0,42.2-0.5,60.6-1.3V307.4
		c-18.4-0.8-38.5-1.3-60.6-1.3C283.9,306.1,263.8,306.6,245.4,307.4z"/>
	<path fill="#231F20" d="M61.4,372.9v269.9c0,27.7,22.5,50.2,50.3,50.2c0,0,35.9,9.1,106.9,13.8V308.9
		c-71,4.7-106.9,13.8-106.9,13.8C83.9,322.7,61.4,345.1,61.4,372.9z"/>
	<path fill="#231F20" d="M500.3,322.7c0,0-36-9.1-106.9-13.8v397.9c70.9-4.7,106.9-13.8,106.9-13.8c27.7,0,50.2-22.5,50.2-50.2
		V372.9C550.6,345.1,528,322.7,500.3,322.7z"/>
	<path fill="#231F20" d="M221.8,83.7c-35-13.1-128.6,85-115.8,123.3c12.7,38.3,103.3,81.9,103.3,81.9l78.3-6.5
		C287.5,282.4,256.7,96.9,221.8,83.7z M213.3,260c0,0-44.3-21.4-50.6-40.1c-6.2-18.8,39.6-66.8,56.8-60.4
		c17.1,6.4,32.2,97.4,32.2,97.4L213.3,260z"/>
	<path fill="#231F20" d="M390.3,83.7c-35,13.2-65.8,198.8-65.8,198.8l78.2,6.5c0,0,90.6-43.6,103.3-81.9
		C518.8,168.7,425.2,70.6,390.3,83.7z M449.3,219.9c-6.2,18.8-50.6,40.1-50.6,40.1l-38.3-3.1c0,0,15.1-91,32.3-97.4
		C409.6,153.1,455.5,201.1,449.3,219.9z"/>
</g>
</svg>
