<?xml version="1.0" encoding="utf-8"?>
<!-- Generator: Adobe Illustrator 18.1.1, SVG Export Plug-In . SVG Version: 6.00 Build 0)  -->
<svg version="1.1" id="Layer_1" xmlns="http://www.w3.org/2000/svg" xmlns:xlink="http://www.w3.org/1999/xlink" x="0px" y="0px"
	 viewBox="0 0 612 792" enable-background="new 0 0 612 792" xml:space="preserve">
<g>
	<path d="M444.8,326.5c0-115.7-94.1-209.9-209.9-209.9c-115.7,0-209.8,94.1-209.8,209.9S119.2,536.4,235,536.4
		C350.7,536.3,444.8,442.2,444.8,326.5z M234.9,515.3c-104.1,0-188.8-84.7-188.8-188.8s84.7-188.9,188.8-188.9
		s188.9,84.7,188.9,188.9S339.1,515.3,234.9,515.3z"/>
	<path d="M197.6,184.3C133.1,201.3,88,259.7,88,326.5c0,25.8,6.8,51.2,19.6,73.4c1.9,3.4,5.5,5.2,9.1,5.2c1.8,0,3.6-0.5,5.2-1.4
		c5-2.9,6.7-9.3,3.8-14.3c-11-19-16.8-40.8-16.8-62.9c0-57.2,38.6-107.3,93.9-121.8c5.6-1.5,9-7.2,7.5-12.8
		C208.9,186.2,203.1,182.9,197.6,184.3z"/>
	<path d="M575.2,597.1L454.8,476.6c-11.8-11.9-32.7-11.9-44.5,0L388,498.9c-12.3,12.3-12.3,32.2,0,44.5l120.4,120.4
		c7.3,7.3,18.5,11.6,29.9,11.6c5.7,0,11.1-1.1,15.8-3.2l1.8-0.8l27-26.9l0.8-1.8C590.1,628.3,586.4,608.3,575.2,597.1z M565.1,632.6
		L544,653.7c-6.4,2-16.2-0.2-20.7-4.7L402.8,528.6c-4.1-4.1-4.1-10.7,0-14.8l22.3-22.3c2-2,4.6-3,7.4-3s5.5,1.1,7.4,3L560.3,612
		C565.1,616.6,567.1,626.1,565.1,632.6z"/>
</g>
</svg>
