<?xml version="1.0" encoding="utf-8"?>
<!-- Generator: Adobe Illustrator 18.1.1, SVG Export Plug-In . SVG Version: 6.00 Build 0)  -->
<svg version="1.1" id="Layer_1" xmlns="http://www.w3.org/2000/svg" xmlns:xlink="http://www.w3.org/1999/xlink" x="0px" y="0px"
	 viewBox="0 0 612 792" enable-background="new 0 0 612 792" xml:space="preserve">
<g>
	<path fill="#231F20" d="M262.6,655.8l-10.3-49.1c-6.9-1.6-13.9-3.5-21-5.7l-26.8,37.2l-70.2-35.7l16-48.6
		c-5.3-4.8-10.2-9.7-14.8-14.8L93,558.1L50.1,492l38.7-34.7c-1.9-6.2-3.7-12.8-5.1-19.6L36.2,433L32,354.3l51-10.8
		c1.4-6.8,3-13.4,4.9-19.7l-38.4-27.6l35.7-70.2l48.5,16c0.2-0.2,0.4-0.5,0.6-0.6c4.2-4.7,8.8-9.4,14.2-14.5l-19-42.3l66-42.9
		l33.2,37.3c6.6-2.2,13.6-4.1,21.2-5.6l4.5-45.3l78.8-4.2l10.3,49c7.4,1.6,14.5,3.3,21.2,5.5l26.5-36.9l70.3,35.6l-15.9,48.6
		c5.1,4.7,10,9.7,14.7,14.9l42.7-19.2l43,66.1l-39,34.7c2,6.2,3.7,12.8,5.1,19.5l47.5,4.8l4.2,78.7l-51,10.6c-2,9.9-5,20.1-8.6,30.2
		l-17.7-6.3c4.1-11.4,7.2-22.6,9.1-33.5l1.1-6.2l47.6-9.9l-2.4-46.5l-45.4-4.5l-1.3-6.9c-1.9-10.5-4.5-20.4-7.8-29.6l-2-6l36.2-32.3
		l-25.5-39l-40.9,18.4l-4.5-5.4c-6.7-8-14.1-15.5-22-22.4l-4.7-4.1l14.8-45.1l-41.5-21l-25.3,35.3l-6.7-2.4
		c-9.4-3.3-19.8-6.2-31.2-8.2l-6.2-1.1l-9.6-45.5l-46.6,2.5l-4.3,43.2l-6.9,1.3c-11.7,2.3-22,4.9-31.2,8.4l-6,2.2l-31-34.7l-39,25.3
		l18,40.3l-5.3,4.5c-7.1,6.2-12.9,12-17.9,17.6c-1,1-1.6,1.9-2.3,2.7l-5.9,7.2l-45.4-14.9l-21.2,41.5l36.5,26.3l-2.3,6.6
		c-3.1,9.2-5.6,19.2-7.5,29.9l-1.1,6.2l-47.7,10l2.5,46.5l45.4,4.5l1.3,6.9c2,10.9,4.5,20.6,7.8,29.8l2,6l-36.1,32.3L99.8,535
		l40.8-18.4l4.5,5.4c6.6,7.8,14,15.2,22.2,22.2l4.8,4.1l-14.8,45.2l41.5,21.2l25.6-35.5l6.7,2.4c10.5,3.7,20.9,6.6,31.1,8.5l6.2,1.2
		l9.6,45.5l46.5-2.5l4.3-43.3l6.9-1.3c11.6-2.2,23.1-5.5,35.1-10l6.7,17.6c-10.5,4.1-21,7.3-31.4,9.6l-4.5,45.3L262.6,655.8z"/>
	<path fill="#231F20" d="M502.3,668c-9.8,0-21.4-4.7-27.6-11.2L318.4,495.6c-35.9,6.7-73.3-4.8-99.1-30.6
		c-31.8-31.8-41.4-79.1-24.5-120.7l5.3-13.1l66.3,66.3c1.4,1.4,2.6,1.4,4.1,0l39-39.1c1-1,1-3.1,0-4.1L243.1,288l13.1-5.4
		c13.4-5.4,27.5-8.1,42-8.1c29.8,0,57.7,11.6,78.8,32.6c26.2,26.2,37.4,63,30.6,99.2l161.2,156.2c6.8,6.6,12.7,20.3,10.8,32
		c-5.7,36.6-36.3,67.2-72.9,72.9C505.3,667.9,503.7,668,502.3,668z M324.6,475l163.6,168.8c2.4,2.5,9.8,6.2,15.5,5.4
		c28.7-4.4,52.8-28.6,57.3-57.3c0.8-5.1-2.6-13-5.4-15.7L386.9,412.7l1.2-5.1c7.4-31.6-1.7-64.1-24.5-86.9
		c-22.5-22.6-55.7-31.9-86.3-24.9l45.4,45.4c4.1,4.1,6.3,9.6,6.3,15.3c0,5.7-2.3,11.2-6.3,15.3l-39,39c-8.1,8.1-22.5,8.2-30.6,0
		l-45.4-45.4c-7.2,30.8,1.9,63.5,24.9,86.3c22.6,22.5,55.8,31.8,86.8,24.5L324.6,475z"/>
</g>
</svg>
