<?xml version="1.0" encoding="utf-8"?>
<!-- Generator: Adobe Illustrator 18.1.1, SVG Export Plug-In . SVG Version: 6.00 Build 0)  -->
<!DOCTYPE svg PUBLIC "-//W3C//DTD SVG 1.1//EN" "http://www.w3.org/Graphics/SVG/1.1/DTD/svg11.dtd">
<svg version="1.1" id="Layer_1" xmlns="http://www.w3.org/2000/svg" xmlns:xlink="http://www.w3.org/1999/xlink" x="0px" y="0px"
	 viewBox="130 -184 512 512" enable-background="new 130 -184 512 512" xml:space="preserve">
<g>
	<path fill="#231F20" d="M349.7,289.4l-8.6-41.1c-5.8-1.3-11.6-2.9-17.6-4.8l-22.4,31.1l-58.7-29.9l13.4-40.7
		c-4.4-4-8.5-8.1-12.4-12.4l-35.6,16.1l-35.9-55.3l32.4-29c-1.6-5.2-3.1-10.7-4.3-16.4l-39.7-4l-3.5-65.8l42.7-9
		c1.2-5.7,2.5-11.2,4.1-16.5l-32.1-23.1l29.9-58.7L242-56.7c0.2-0.2,0.3-0.4,0.5-0.5c3.5-3.9,7.4-7.9,11.9-12.1l-15.9-35.4
		l55.2-35.9l27.8,31.2c5.5-1.8,11.4-3.4,17.7-4.7l3.8-37.9l65.9-3.5l8.6,41c6.2,1.3,12.1,2.8,17.7,4.6l22.2-30.9l58.8,29.8
		l-13.3,40.7c4.3,3.9,8.4,8.1,12.3,12.5l35.7-16.1l36,55.3l-32.6,29c1.7,5.2,3.1,10.7,4.3,16.3l39.7,4l3.5,65.8l-42.7,8.9
		c-1.7,8.3-4.2,16.8-7.2,25.3l-14.8-5.3c3.4-9.5,6-18.9,7.6-28l0.9-5.2l39.8-8.3L583.4,45l-38-3.8l-1.1-5.8
		c-1.6-8.8-3.8-17.1-6.5-24.8l-1.7-5l30.3-27l-21.3-32.6l-34.2,15.4l-3.8-4.5c-5.6-6.7-11.8-13-18.4-18.7l-3.9-3.4l12.4-37.7
		l-34.7-17.6l-21.2,29.5l-5.6-2c-7.9-2.8-16.6-5.2-26.1-6.9l-5.2-0.9l-8-38.1l-39,2.1l-3.6,36.1l-5.8,1.1c-9.8,1.9-18.4,4.1-26.1,7
		l-5,1.8l-25.9-29l-32.6,21.2l15.1,33.7l-4.4,3.8c-5.9,5.2-10.8,10-15,14.7c-0.8,0.8-1.3,1.6-1.9,2.3l-4.9,6l-38-12.5l-17.7,34.7
		l30.5,22l-1.9,5.5c-2.6,7.7-4.7,16.1-6.3,25l-0.9,5.2l-39.9,8.4l2.1,38.9l38,3.8l1.1,5.8c1.7,9.1,3.8,17.2,6.5,24.9l1.7,5l-30.2,27
		l21.2,32.7l34.1-15.4l3.8,4.5c5.5,6.5,11.7,12.7,18.6,18.6l4,3.4l-12.4,37.8l34.7,17.7l21.4-29.7l5.6,2c8.8,3.1,17.5,5.5,26,7.1
		l5.2,1l8,38.1l38.9-2.1l3.6-36.2l5.8-1.1c9.7-1.8,19.3-4.6,29.4-8.4l5.6,14.7c-8.8,3.4-17.6,6.1-26.3,8l-3.8,37.9L349.7,289.4z"/>
	<path fill="#231F20" d="M550.2,299.6c-8.2,0-17.9-3.9-23.1-9.4L396.4,155.4c-30,5.6-61.3-4-82.9-25.6
		c-26.6-26.6-34.6-66.2-20.5-101l4.4-11l55.5,55.5c1.2,1.2,2.2,1.2,3.4,0l32.6-32.7c0.8-0.8,0.8-2.6,0-3.4l-55.5-55.5l11-4.5
		c11.2-4.5,23-6.8,35.1-6.8c24.9,0,48.3,9.7,65.9,27.3c21.9,21.9,31.3,52.7,25.6,83l134.9,130.7c5.7,5.5,10.6,17,9,26.8
		c-4.8,30.6-30.4,56.2-61,61C552.7,299.5,551.4,299.6,550.2,299.6z M401.6,138.1l136.9,141.2c2,2.1,8.2,5.2,13,4.5
		c24-3.7,44.2-23.9,47.9-47.9c0.7-4.3-2.2-10.9-4.5-13.1L453.7,86l1-4.3c6.2-26.4-1.4-53.6-20.5-72.7C415.4-9.9,387.6-17.7,362-11.8
		l38,38c3.4,3.4,5.3,8,5.3,12.8c0,4.8-1.9,9.4-5.3,12.8l-32.6,32.6c-6.8,6.8-18.8,6.9-25.6,0l-38-38c-6,25.8,1.6,53.1,20.8,72.2
		c18.9,18.8,46.7,26.6,72.6,20.5L401.6,138.1z"/>
</g>
</svg>
