<?xml version="1.0" encoding="utf-8"?>
<!-- Generator: Adobe Illustrator 18.1.1, SVG Export Plug-In . SVG Version: 6.00 Build 0)  -->
<svg version="1.1" id="Layer_1" xmlns="http://www.w3.org/2000/svg" xmlns:xlink="http://www.w3.org/1999/xlink" x="0px" y="0px"
	 viewBox="0 0 612 792" enable-background="new 0 0 612 792" xml:space="preserve">
<path fill="#231F20" d="M361.9,222.1l212,156.7l-212,156.7V430.9l-10.6,0.2c-173.7,2.7-268.9,71.5-313,138.8
	c22.6-101.3,93.5-243.2,313.2-243.2h10.4L361.9,222.1 M361.9,209.2c-2,0-4,0.5-5.8,1.4c-4.4,2.2-7.1,6.7-7.1,11.6v91.6
	C116.6,314.9,46.6,472.8,25.6,567c-1.4,6.1,1.8,12.3,7.6,14.8c1.6,0.7,3.3,1,5,1c4.3,0,8.4-2.1,10.8-5.9
	C80.6,528.7,161.5,447.6,348.8,444v91.5c0,4.9,2.8,9.4,7.1,11.6c1.8,0.9,3.8,1.4,5.8,1.4c2.7,0,5.4-0.9,7.7-2.5l212-156.7
	c3.3-2.4,5.3-6.3,5.3-10.4s-2-8-5.3-10.4l-212-156.7C367.3,210,364.6,209.2,361.9,209.2L361.9,209.2z"/>
</svg>
