<?xml version="1.0" encoding="utf-8"?>
<!-- Generator: Adobe Illustrator 18.1.1, SVG Export Plug-In . SVG Version: 6.00 Build 0)  -->
<svg version="1.1" id="Layer_1" xmlns="http://www.w3.org/2000/svg" xmlns:xlink="http://www.w3.org/1999/xlink" x="0px" y="0px"
	 viewBox="0 0 612 792" enable-background="new 0 0 612 792" xml:space="preserve">
<g>
	<g>
		<polygon fill="#231F20" points="360.4,276.9 360.4,297.6 490.8,297.6 490.8,649.6 121.2,649.6 121.2,297.6 251.7,297.6 
			251.7,276.9 99.5,276.9 99.5,670.3 512.5,670.3 512.5,276.9 		"/>
		<path fill="#231F20" d="M222.2,226.4c2,2,5.1,2,7.1,0.1l65.9-63.5v310.7h21.8V160.3l70.8,67.4c1.9,1.9,5.1,1.8,7.1-0.1l9-8.1
			c2-2,2-5.1,0.1-7.1l-81.9-78.2c-0.2-1-0.6-2-1.4-2.7l-8.2-8.2c-1.9-2-5.3-2-7.1-0.1l-91.2,88c-1.9,1.9-1.9,5,0.1,7.1L222.2,226.4z
			"/>
	</g>
</g>
</svg>
