<?xml version="1.0" encoding="utf-8"?>
<!-- Generator: Adobe Illustrator 18.1.1, SVG Export Plug-In . SVG Version: 6.00 Build 0)  -->
<svg version="1.1" id="Layer_1" xmlns="http://www.w3.org/2000/svg" xmlns:xlink="http://www.w3.org/1999/xlink" x="0px" y="0px"
	 viewBox="0 0 612 792" enable-background="new 0 0 612 792" xml:space="preserve">
<g>
	<g>
		<path fill="#231F20" d="M221.8,484.2c0.8-0.1,1.6-0.5,2.3-0.7c2.2,0.5,4.3,0.7,6.5,0.7h235.1c14.7,0,30.5-10.8,36-24.4l63.9-159.6
			c3.1-7.9,2.5-15.9-1.6-22c-4.2-6.1-11.4-9.7-19.8-9.7H181.5c-8.1,0-15.5,3.5-20.2,9.3s-6.2,13.9-4.2,21.9l39.4,157.9
			c1.2,4.9,3.7,9.3,7.1,13.3c-7.5,5-16,13.7-21.6,29.5c-2.5,7.3-3,18.4,3.8,27.9c4.7,6.7,14.6,14.6,34.9,14.6h284.1
			c5.4,0,9.8-4.4,9.8-9.8s-4.4-9.8-9.8-9.8H220.7c-6.6,0-15.2-1.1-18.9-6.3c-2.5-3.6-1.9-8.1-1.3-10
			C208,486.4,220.9,484.3,221.8,484.2z M176.3,295.1c-0.5-2-0.2-3.8,0.6-5c1-1.2,2.6-1.8,4.8-1.8h362.5c2,0,3.2,0.5,3.6,1.1
			c0.4,0.5,0.4,1.9-0.4,3.7l-63.8,159.6c-2.5,6.3-11,12.1-17.8,12.1H230.5c-6.2,0-13.3-5.5-14.8-11.6L176.3,295.1z"/>
		<path fill="#231F20" d="M164,240.1l-19.5-64.5c-9.3-36.7-36.3-44.8-48.6-44.1H54.2c-5.4,0-9.8,4.4-9.8,9.8s4.4,9.8,9.8,9.8h42.1
			c2.3,0,21.8,0.1,29.3,29.8l19.6,64.9c1.3,4.2,5.1,6.9,9.3,6.9c1,0,1.9-0.1,2.9-0.5C162.7,250.7,165.5,245.2,164,240.1z"/>
		<path fill="#231F20" d="M220.7,562.6c-27,0-49,22-49,49c0,27,22,49,49,49s49-22,49-49C269.8,584.6,247.8,562.6,220.7,562.6z
			 M220.7,641c-16.3,0-29.4-13.1-29.4-29.4c0-16.3,13.1-29.4,29.4-29.4s29.4,13.1,29.4,29.4C250.1,627.9,237,641,220.7,641z"/>
		<path fill="#231F20" d="M456,562.6c-27,0-49,22-49,49c0,27,22,49,49,49c27,0,49-22,49-49C505,584.6,483,562.6,456,562.6z M456,641
			c-16.3,0-29.4-13.1-29.4-29.4c0-16.3,13.1-29.4,29.4-29.4c16.3,0,29.4,13.1,29.4,29.4C485.4,627.9,472.1,641,456,641z"/>
	</g>
</g>
</svg>
