<?xml version="1.0" encoding="utf-8"?>
<!-- Generator: Adobe Illustrator 18.1.1, SVG Export Plug-In . SVG Version: 6.00 Build 0)  -->
<!DOCTYPE svg PUBLIC "-//W3C//DTD SVG 1.1//EN" "http://www.w3.org/Graphics/SVG/1.1/DTD/svg11.dtd">
<svg version="1.1" id="Layer_1" xmlns="http://www.w3.org/2000/svg" xmlns:xlink="http://www.w3.org/1999/xlink" x="0px" y="0px"
	 viewBox="130 -184 512 512" enable-background="new 130 -184 512 512" xml:space="preserve">
<g>
	<g>
		<path fill="#231F20" d="M315.6,145.8c0.7-0.1,1.3-0.4,1.9-0.6c1.8,0.4,3.6,0.6,5.4,0.6h196.7c12.3,0,25.5-9,30.1-20.4L603.2-8.1
			c2.6-6.6,2.1-13.3-1.3-18.4c-3.5-5.1-9.5-8.1-16.6-8.1H281.9c-6.8,0-13,2.9-16.9,7.8s-5.2,11.6-3.5,18.3l33,132.1
			c1,4.1,3.1,7.8,5.9,11.1c-6.3,4.2-13.4,11.5-18.1,24.7c-2.1,6.1-2.5,15.4,3.2,23.3c3.9,5.6,12.2,12.2,29.2,12.2h237.7
			c4.5,0,8.2-3.7,8.2-8.2c0-4.5-3.7-8.2-8.2-8.2H314.7c-5.5,0-12.7-0.9-15.8-5.3c-2.1-3-1.6-6.8-1.1-8.4
			C304,147.7,314.8,145.9,315.6,145.8z M277.5-12.4c-0.4-1.7-0.2-3.2,0.5-4.2c0.8-1,2.2-1.5,4-1.5h303.3c1.7,0,2.7,0.4,3,0.9
			c0.3,0.4,0.3,1.6-0.3,3.1l-53.4,133.5c-2.1,5.3-9.2,10.1-14.9,10.1H322.9c-5.2,0-11.1-4.6-12.4-9.7L277.5-12.4z"/>
		<path fill="#231F20" d="M267.2-58.4l-16.3-54c-7.8-30.7-30.4-37.5-40.7-36.9h-34.8c-4.5,0-8.2,3.7-8.2,8.2c0,4.5,3.7,8.2,8.2,8.2
			h35.2c1.9,0,18.2,0.1,24.5,24.9l16.4,54.3c1.1,3.5,4.3,5.8,7.8,5.8c0.8,0,1.6-0.1,2.4-0.4C266.1-49.5,268.5-54.1,267.2-58.4z"/>
		<path fill="#231F20" d="M314.7,211.4c-22.6,0-41,18.4-41,41s18.4,41,41,41c22.6,0,41-18.4,41-41S337.3,211.4,314.7,211.4z
			 M314.7,277c-13.6,0-24.6-11-24.6-24.6s11-24.6,24.6-24.6s24.6,11,24.6,24.6S328.3,277,314.7,277z"/>
		<path fill="#231F20" d="M511.5,211.4c-22.6,0-41,18.4-41,41s18.4,41,41,41c22.6,0,41-18.4,41-41S534.1,211.4,511.5,211.4z
			 M511.5,277c-13.6,0-24.6-11-24.6-24.6s11-24.6,24.6-24.6c13.6,0,24.6,11,24.6,24.6S525,277,511.5,277z"/>
	</g>
</g>
</svg>
