<?xml version="1.0" encoding="utf-8"?>
<!-- Generator: Adobe Illustrator 18.1.1, SVG Export Plug-In . SVG Version: 6.00 Build 0)  -->
<!DOCTYPE svg PUBLIC "-//W3C//DTD SVG 1.1//EN" "http://www.w3.org/Graphics/SVG/1.1/DTD/svg11.dtd">
<svg version="1.1" id="Layer_1" xmlns="http://www.w3.org/2000/svg" xmlns:xlink="http://www.w3.org/1999/xlink" x="0px" y="0px"
	 viewBox="130 -184 512 512" enable-background="new 130 -184 512 512" xml:space="preserve">
<path fill="#231F20" d="M516.6,285.9c-3.3,0-6.9-1.1-10.5-3.3l-110.1-66.7c-5-3-14.9-3-19.9,0L266,282.6c-8.2,4.9-16.2,4.2-20.6-1.4
	c-2.1-2.6-4.1-7.4-2.3-15.3l29.4-125.3c1.4-5.9-1.5-14.9-6.1-18.9l-97.4-84.1c-8.5-7.3-7.4-14.3-6.5-17c0.9-2.7,4.1-9,15.3-9.9
	L305.9-0.1c6.1-0.5,13.7-6.1,16.1-11.7l49.9-118.7c4.3-10.3,11.3-11.5,14.2-11.5c2.8,0,9.8,1.1,14.2,11.5L450-11.8
	c2.4,5.6,10,11.2,16.1,11.7l128.3,10.8c11.2,0.9,14.4,7.3,15.3,9.9c0.9,2.7,2,9.7-6.5,17l-97.4,84.1c-4.6,4-7.5,13-6.1,18.9
	l29.4,125.3c1.8,7.9-0.2,12.6-2.3,15.3C524.2,284.2,520.7,285.9,516.6,285.9z M182.2,27l95,82c9.2,8,14.3,23.5,11.5,35.4L260,266.7
	l107.4-65c10.2-6.1,27-6.1,37.2,0l107.4,65l-28.7-122.2c-2.8-11.9,2.3-27.4,11.5-35.4l95-82L464.7,16.5c-12.1-1-25.4-10.6-30.1-21.9
	L386-121.1L337.3-5.3c-4.7,11.2-17.9,20.8-30.1,21.9L182.2,27z"/>
</svg>
