<?xml version="1.0" encoding="utf-8"?>
<!-- Generator: Adobe Illustrator 18.1.1, SVG Export Plug-In . SVG Version: 6.00 Build 0)  -->
<svg version="1.1" id="Layer_1" xmlns="http://www.w3.org/2000/svg" xmlns:xlink="http://www.w3.org/1999/xlink" x="0px" y="0px"
	 viewBox="0 0 612 792" enable-background="new 0 0 612 792" xml:space="preserve">
<path fill="#231F20" d="M462,651.7c-3.9,0-8.2-1.3-12.6-3.9l-131.6-79.7c-6-3.6-17.8-3.6-23.8,0l-131.6,79.7
	c-9.8,5.9-19.4,5-24.6-1.7c-2.5-3.1-4.9-8.8-2.7-18.3l35.1-149.8c1.7-7.1-1.8-17.8-7.3-22.6L46.5,354.9c-10.2-8.7-8.8-17.1-7.8-20.3
	c1.1-3.2,4.9-10.8,18.3-11.8l153.1-12.9c7.3-0.6,16.4-7.3,19.2-14L289,154c5.1-12.3,13.5-13.7,17-13.7c3.3,0,11.7,1.3,17,13.7
	l59.4,141.9c2.9,6.7,12,13.4,19.2,14L555,322.8c13.4,1.1,17.2,8.7,18.3,11.8c1.1,3.2,2.4,11.6-7.8,20.3L449.1,455.5
	c-5.5,4.8-9,15.5-7.3,22.6l35.1,149.8c2.2,9.4-0.2,15.1-2.7,18.3C471.1,649.7,466.9,651.7,462,651.7z M62.3,342.3l113.6,98
	c11,9.6,17.1,28.1,13.7,42.3l-34.3,146.2l128.4-77.7c12.2-7.3,32.3-7.3,44.5,0l128.4,77.7l-34.3-146.1c-3.3-14.2,2.7-32.8,13.7-42.3
	l113.6-98L400,329.7c-14.5-1.2-30.4-12.7-36-26.2l-58.1-138.3l-58.2,138.4c-5.6,13.4-21.4,24.9-36,26.2L62.3,342.3z"/>
</svg>
