<?xml version="1.0" encoding="utf-8"?>
<!-- Generator: Adobe Illustrator 18.1.1, SVG Export Plug-In . SVG Version: 6.00 Build 0)  -->
<svg version="1.1" id="Layer_1" xmlns="http://www.w3.org/2000/svg" xmlns:xlink="http://www.w3.org/1999/xlink" x="0px" y="0px"
	 viewBox="0 0 612 792" enable-background="new 0 0 612 792" xml:space="preserve">
<g>
	<g>
		<g>
			<path fill="#231F20" d="M530.6,437c-10.3-57.7-36.2-113-74.8-158.8c-3.5-4.2-7.2-8.3-12-11.2c-5.3-3.1-11.5-4.4-17.6-5.6
				c-26.9-5.1-54.2-8.4-81.5-10c-8.8-0.5-28.3-3.1-43.6-1.6c-15.3-1.5-34.8,1.1-43.6,1.6c-27.4,1.6-54.6,4.9-81.5,10
				c-6.1,1.2-12.3,2.4-17.6,5.6c-4.8,2.8-8.5,7-12,11.2c-39,46.2-64.9,102.1-75.1,160.5c-25.3,6.9-44.1,32.6-44.1,63.2v65
				c0,23.6,11.2,44.2,27.8,55.7v46.1c0,11.2,8,20.2,17.9,20.2h58.4c9.9,0,17.9-9,17.9-20.2V632h307.2v36.6c0,11.2,8,20.2,17.9,20.2
				h58.4c9.9,0,17.9-9,17.9-20.2v-42.1c20.3-10.1,34.5-33,34.5-59.6v-65C584.9,467.2,560.9,438.9,530.6,437z M141.1,347.7
				c11.9-21.7,24.5-46.8,52.2-52c19.9-3.7,40.1-6.2,60.3-7.5c9.5-0.6,19-0.9,28.5-0.9c6.3,0,12.5,0,18.8-0.2
				c6.3,0.2,12.5,0.2,18.8,0.2c9.5,0,19,0.3,28.5,0.9c20.3,1.3,40.4,3.8,60.3,7.5c27.7,5.2,40.3,30.3,52.2,52
				c14.8,27,29.7,54.5,35.8,84.3c0.3,1.6,0.6,3.2,1,4.8h-36.8c-8.9-38.1-39.6-66.4-76.1-66.4c-36.5,0-67.2,28.3-76.1,66.4H104.4
				c0.3-1.6,0.6-3.2,1-4.8C111.4,402.1,126.4,374.7,141.1,347.7z M437,436.8H332.5c8.1-23.7,28.4-40.7,52.2-40.7
				C408.6,396.1,428.9,413.1,437,436.8z M148.5,585c-15.1,0-30.5-0.8-44.8-6.3c-30.2-11.7-50.2-60.4-21.9-88.5
				c2.8-2.8,6-5.1,9.6-5.9c5.9-1.4,12,1.4,16.7,5.6c4.7,4.3,8.2,9.9,11.8,15.4c7.8,11.8,16.2,23.1,25.3,33.6
				c13.1,15.2,27.4,29.1,42.7,41.2C175.3,584.5,161.8,585,148.5,585z M462.4,538.8c9.1-10.6,17.5-21.8,25.3-33.6
				c3.6-5.5,7.1-11.1,11.8-15.4c4.7-4.3,10.8-7,16.7-5.6c3.6,0.8,6.8,3.2,9.6,5.9c28.4,28.1,8.4,76.9-21.9,88.5
				c-14.3,5.5-29.7,6.3-44.8,6.3c-13.3,0-26.8-0.5-39.5-4.9C435.1,567.9,449.4,554,462.4,538.8z"/>
			<g>
				<g>
					<path fill="#231F20" d="M227.1,118.1c0,1.6-0.6,3-1.8,4.1c-1.2,1.1-2.6,1.6-4.2,1.6h-17.6c-1.3,0-1.9,0.6-1.9,1.7v86.7
						c0,1.5-0.5,2.8-1.6,3.9c-1.1,1.1-2.4,1.6-4,1.6h-11.8c-1.6,0-3-0.5-4.1-1.6c-1.1-1.1-1.7-2.4-1.7-3.9v-86.7
						c0-1.1-0.6-1.7-1.7-1.7h-17.6c-1.6,0-3-0.5-4.1-1.6c-1.1-1.1-1.6-2.4-1.6-4.1v-9.5c0-1.5,0.6-2.8,1.7-3.9
						c1.1-1.1,2.5-1.6,4-1.6h61.9c1.5,0,2.9,0.5,4.2,1.6c1.2,1.1,1.9,2.3,1.9,3.9V118.1z"/>
					<path fill="#231F20" d="M299.5,211.5c0.4,1.6,0,3.1-1.1,4.4c-1.2,1.3-2.6,1.9-4.3,1.9h-13c-3.1,0-5-1.8-5.8-5.6l-3.5-16.4
						c-0.3-1.3-0.9-2-1.7-2h-17.5c-1.2,0-2,0.7-2.3,2l-3,16.3c-0.7,3.7-2.7,5.6-6,5.6h-12.7c-1.7,0-3.1-0.7-4.2-1.9
						c-1.1-1.3-1.4-2.7-1.1-4.4l21.2-102.9c0.7-3.6,2.6-5.5,5.9-5.5h20.5c3.1,0,5.1,1.8,5.9,5.5L299.5,211.5z M266.7,170.1
						l-6.3-33.8l-5.9,33.7c-0.2,1.2,0.2,1.9,1.3,1.9h9.3C266.3,171.8,266.9,171.2,266.7,170.1z"/>
					<path fill="#231F20" d="M383.7,211.3c0.4,0.7,0.6,1.3,0.6,1.9c0,1.3-0.5,2.4-1.6,3.3c-1.1,0.9-2.3,1.3-3.5,1.3h-13.8
						c-2.1,0-3.9-1.6-5.4-4.7l-15.6-31.2l-14.5,31.1c-1.4,3.2-3.3,4.8-5.8,4.8h-13.8c-1.3,0-2.5-0.4-3.6-1.3c-1.1-0.9-1.6-2-1.6-3.3
						c0-0.6,0.1-1.2,0.4-1.9l25.2-53.3c0.2-0.7,0.2-1.3-0.1-2l-22.3-46.6c-0.3-0.7-0.4-1.3-0.4-2c0-1.1,0.5-2.2,1.5-3
						c1-0.9,2.2-1.3,3.5-1.3h13.6c2.4,0,4.3,1.6,5.7,4.7l11.9,25.2l11.2-25.2c1.4-3.1,3.4-4.7,6-4.7h13.8c1.2,0,2.4,0.4,3.5,1.3
						c1.1,0.9,1.6,1.9,1.6,3.1c0,0.6-0.2,1.2-0.6,1.9L357.4,156c-0.4,0.8-0.4,1.4-0.1,1.9L383.7,211.3z"/>
					<path fill="#231F20" d="M419,211.9c0,1.5-0.6,2.9-1.8,4.1c-1.2,1.2-2.6,1.8-4.2,1.8h-12.3c-1.7,0-3.1-0.6-4.3-1.8
						c-1.1-1.2-1.7-2.5-1.7-4.1V109c0-1.6,0.6-3,1.7-4.2c1.1-1.1,2.6-1.7,4.3-1.7H413c1.6,0,3,0.6,4.2,1.7s1.8,2.5,1.8,4.2V211.9z"
						/>
				</g>
			</g>
		</g>
	</g>
</g>
</svg>
