<?xml version="1.0" encoding="utf-8"?>
<!-- Generator: Adobe Illustrator 18.1.1, SVG Export Plug-In . SVG Version: 6.00 Build 0)  -->
<svg version="1.1" id="Layer_1" xmlns="http://www.w3.org/2000/svg" xmlns:xlink="http://www.w3.org/1999/xlink" x="0px" y="0px"
	 viewBox="0 0 612 792" enable-background="new 0 0 612 792" xml:space="preserve">
<g>
	<path fill="#282828" d="M607,95v602H5V95H607 M612,90H0v612h612V90L612,90z"/>
</g>
<g>
	<circle fill="#282828" cx="467.8" cy="555.8" r="26.7"/>
	<path fill="#282828" d="M414,387.7c-1.1-3.2-10.4-9.3-21.5-9.3H219.6c-11.1,0-20.4,6.1-21.5,9.3l-30,85c1.1,0,2.2-0.1,3.3-0.1
		h269.2c1.1,0,2.2,0,3.3,0.1L414,387.7z"/>
	<circle fill="#282828" cx="144.2" cy="555.8" r="26.7"/>
	<path fill="#282828" d="M0,90v612h612V90H0z M538.8,640.9c0,2-1.6,3.5-3.5,3.5h-39v27c0,15.7-12.7,28.4-28.4,28.4
		s-28.4-12.7-28.4-28.4v-27H172.6v27c0,15.7-12.7,28.4-28.4,28.4c-15.7,0-28.4-12.7-28.4-28.4v-27h-39c-2,0-3.5-1.6-3.5-3.5v-70.1
		c0-38,21.7-71,53.4-87.3l37.9-107.6c6.7-19.1,29.9-33,55-33h172.9c25.1,0,48.2,13.9,55,33l37.9,107.6
		c31.7,16.3,53.4,49.3,53.4,87.3V640.9z"/>
</g>
</svg>
