<?xml version="1.0" encoding="utf-8"?>
<!-- Generator: Adobe Illustrator 18.1.1, SVG Export Plug-In . SVG Version: 6.00 Build 0)  -->
<svg version="1.1" id="Layer_1" xmlns="http://www.w3.org/2000/svg" xmlns:xlink="http://www.w3.org/1999/xlink" x="0px" y="0px"
	 viewBox="0 0 612 792" enable-background="new 0 0 612 792" xml:space="preserve">
<path fill="#231F20" d="M612,702H0V90h612V702z M466.9,312c-5.8,3.1-22.5,9.3-38.2,10.8c9.9-5.1,25.1-23.2,28.8-37.1
	c-9.9,6.2-31.9,14.9-42.9,14.9l0,0c-13.1-12.4-30.3-20.6-50.2-20.6c-38.2,0-69,30.4-69,67.9c0,5.1,0.5,10.3,1.6,14.9l0,0
	c-51.7-1.5-112.4-26.8-146.3-70.5c-20.9,35.5-2.6,75.1,20.9,89.5c-7.9,1-23-0.5-29.8-7.2c-0.5,23.7,11,55.1,53.3,66.4
	c-8.4,4.1-22.5,3.1-28.7,2.1c2.1,20.1,30.8,46.3,61.7,46.3c-11,12.3-48.6,35.5-95.7,28.3c31.9,19.1,69,29.8,108.2,29.8
	c111.3,0,197.6-89,193.4-198.7v-0.5c0-0.5,0-0.5,0-1s0-0.5,0-1C443.4,340.3,457,327.9,466.9,312z"/>
</svg>
