<?xml version="1.0" encoding="utf-8"?>
<!-- Generator: Adobe Illustrator 18.1.1, SVG Export Plug-In . SVG Version: 6.00 Build 0)  -->
<svg version="1.1" id="Layer_1" xmlns="http://www.w3.org/2000/svg" xmlns:xlink="http://www.w3.org/1999/xlink" x="0px" y="0px"
	 viewBox="0 0 612 792" enable-background="new 0 0 612 792" xml:space="preserve">
<g>
	<path d="M558.7,147.4c-14.1-15.5-34.6-23.2-57.9-20.9l-149.9,14.8c-18,1.8-40.6,11.7-51.6,22.7l-247,247
		c-19.5,19.6-21.5,49.4-4.3,66.6l176.9,176.9c7.4,7.4,17.6,11.5,28.7,11.5c13.1,0,26.2-5.6,36-15.5l247.2-247.1
		c11.5-11.5,21.7-32.4,23.2-47.6l15.3-155C577.3,180.4,571.4,161.4,558.7,147.4z M275.4,636.2c-6.1,6.1-14,9.6-21.8,9.6
		c-4.1,0-9.8-1-14.4-5.6L62.3,463.3c-9.1-9.1-7.2-26.5,4.3-38l40.2-40.3l209.9,209.9L275.4,636.2z M555.2,198.9l-15.3,155
		c-1,10.5-9.2,27-17.4,35.3L331,580.6L121.1,370.8l192.6-192.6c7.7-7.7,26-15.6,39.3-16.9l149.9-14.8c2-0.2,4-0.3,5.9-0.3
		c14,0,26.5,5.2,35.1,14.7C552.6,170.6,556.6,184.1,555.2,198.9z"/>
	<path d="M461.1,190.1c-27.8,0-50.5,22.6-50.5,50.5s22.6,50.5,50.5,50.5c27.8,0,50.5-22.6,50.5-50.5S489,190.1,461.1,190.1z
		 M461.1,270.9c-16.7,0-30.3-13.6-30.3-30.3s13.6-30.3,30.3-30.3c16.7,0,30.3,13.6,30.3,30.3S477.8,270.9,461.1,270.9z"/>
</g>
</svg>
