<?xml version="1.0" encoding="utf-8"?>
<!-- Generator: Adobe Illustrator 18.1.1, SVG Export Plug-In . SVG Version: 6.00 Build 0)  -->
<!DOCTYPE svg PUBLIC "-//W3C//DTD SVG 1.1//EN" "http://www.w3.org/Graphics/SVG/1.1/DTD/svg11.dtd">
<svg version="1.1" id="Layer_1" xmlns="http://www.w3.org/2000/svg" xmlns:xlink="http://www.w3.org/1999/xlink" x="0px" y="0px"
	 viewBox="-1471 609 512 512" enable-background="new -1471 609 512 512" xml:space="preserve">
<g>
	<path d="M-1154.6,764.3c0-33.3-27.1-60.4-60.4-60.4c-33.3,0-60.4,27.1-60.4,60.4c0,33.3,27.1,60.4,60.4,60.4
		C-1181.7,824.7-1154.6,797.6-1154.6,764.3z M-1260.3,764.3c0-25,20.3-45.3,45.3-45.3c25,0,45.3,20.3,45.3,45.3
		c0,25-20.3,45.3-45.3,45.3C-1240,809.6-1260.3,789.3-1260.3,764.3z"/>
	<path d="M-1050.3,873.8l-64.3-21.4c5.5-10.5,10.7-21.2,15.4-32c8.3-17.3,12.5-35.7,12.5-54.7c0-70.3-57.5-127.5-128.2-127.5
		c-70.7,0-128.3,57.2-128.3,127.5c0,19.2,4.1,37.6,12.2,54.4c4.7,10.8,10,21.6,15.5,32.2l-64.1,21.4l-58.1,215.6l109.5-50.5
		l113.2,52.8l113.2-52.8l109.5,50.5L-1050.3,873.8z M-1328.2,765.8c0-62,50.8-112.4,113.2-112.4c62.4,0,113.1,50.4,113.1,112.4
		c0,16.7-3.7,32.9-11.1,48.4c-30.9,70.8-84.4,140.5-102,162.4c-17.6-22-71.4-91.7-102.3-162.7
		C-1324.5,798.9-1328.2,782.7-1328.2,765.8z M-1101.9,1022.3l-113.1,52.8l-113.1-52.8l-86.6,40l47.6-176.7l59-19.7
		c38.4,69,86.9,126.8,87.5,127.5l5.8,6.8l5.8-6.8c0.6-0.7,49-58.6,87.3-127.5l59.1,19.7l47.6,176.7L-1101.9,1022.3z"/>
</g>
</svg>
