<?xml version="1.0" encoding="utf-8"?>
<!-- Generator: Adobe Illustrator 18.1.1, SVG Export Plug-In . SVG Version: 6.00 Build 0)  -->
<svg version="1.1" id="Layer_1" xmlns="http://www.w3.org/2000/svg" xmlns:xlink="http://www.w3.org/1999/xlink" x="0px" y="0px"
	 viewBox="0 0 612 792" enable-background="new 0 0 612 792" xml:space="preserve">
<g>
	<path d="M306,687.5C145.2,687.5,14.4,556.8,14.4,396S145.2,104.4,306,104.4S597.6,235.3,597.6,396S466.7,687.5,306,687.5z
		 M306,148.8C169.6,148.8,58.7,259.7,58.7,396S169.6,643.3,306,643.3s247.3-111,247.3-247.3S442.3,148.8,306,148.8z"/>
	<g>
		<path d="M163.9,359.8c-0.3,25.7,5.9,49.9,17.1,71.1l126.2,243l132.9-240.1c11.6-20.8,18.4-44.6,18.8-70.1
			c1.1-78.6-59.6-143.6-137-149.1c-2.8-0.2-5.7-0.4-8.5-0.4c-40.7-0.5-77.8,15.4-104.8,41.8C181.4,282.5,164.4,319,163.9,359.8z
			 M235,360.8c0.6-42.1,35.2-75.8,77.3-75.2c42,0.6,75.8,35.2,75.2,77.3c-0.6,42.1-35.3,75.8-77.3,75.3
			C268.2,437.5,234.5,402.8,235,360.8z"/>
	</g>
</g>
</svg>
