<?xml version="1.0" encoding="utf-8"?>
<!-- Generator: Adobe Illustrator 18.1.1, SVG Export Plug-In . SVG Version: 6.00 Build 0)  -->
<!DOCTYPE svg PUBLIC "-//W3C//DTD SVG 1.1//EN" "http://www.w3.org/Graphics/SVG/1.1/DTD/svg11.dtd">
<svg version="1.1" id="Layer_1" xmlns="http://www.w3.org/2000/svg" xmlns:xlink="http://www.w3.org/1999/xlink" x="0px" y="0px"
	 viewBox="-1471 609 512 512" enable-background="new -1471 609 512 512" xml:space="preserve">
<g>
	<path d="M-1050.3,873.8l-64.3-21.4c5.5-10.5,10.7-21.2,15.4-32c8.3-17.3,12.5-35.7,12.5-54.7c0-70.3-57.5-127.5-128.2-127.5
		c-70.7,0-128.3,57.2-128.3,127.5c0,19.2,4.1,37.6,12.2,54.4c4.7,10.8,10,21.6,15.5,32.2l-64.1,21.4l-58.1,215.6l109.5-50.5
		l113.2,52.8l113.2-52.8l109.5,50.5L-1050.3,873.8z M-1101.9,1022.3l-113.1,52.8l-113.1-52.8l-86.6,40l47.6-176.7l59-19.7
		c38.4,69,86.9,126.8,87.5,127.5l5.8,6.8l5.8-6.8c0.6-0.7,49-58.6,87.3-127.5l59.1,19.7l47.6,176.7L-1101.9,1022.3z"/>
	<path fill="#FFFFFF" d="M-1272.3,764.3c0-31.6,25.7-57.3,57.3-57.3c31.6,0,57.3,25.7,57.3,57.3c0,31.6-25.7,57.3-57.3,57.3
		C-1246.6,821.7-1272.3,795.9-1272.3,764.3z"/>
</g>
</svg>
